<?xml version="1.0" encoding="UTF-8" standalone="no"?>
<!DOCTYPE svg PUBLIC "-//W3C//DTD SVG 1.0//EN"
 "http://www.w3.org/TR/2001/REC-SVG-20010904/DTD/svg10.dtd" [
 <!ATTLIST svg xmlns:xlink CDATA #FIXED "http://www.w3.org/1999/xlink">
]>
<!-- Generated by Graphviz version 2.20.2 (Tue Mar &#160;2 19:03:41 UTC 2010)
     For user: (hevia) hevia,,, -->
<!-- Title: abidos_flow_diagram_01 Pages: 1 -->
<svg width="372pt" height="446pt"
 viewBox="0.00 0.00 372.00 446.00" xmlns="http://www.w3.org/2000/svg" xmlns:xlink="http://www.w3.org/1999/xlink">
<g id="graph0" class="graph" transform="scale(1 1) rotate(0) translate(4 442)">
<title>abidos_flow_diagram_01</title>
<polygon style="fill:white;stroke:white;" points="-4,4 -4,-442 368,-442 368,4 -4,4"/>
<!-- make_out.txt -->
<g id="node1" class="node"><title>make_out.txt</title>
<polygon style="fill:none;stroke:black;" points="215,-438 107,-438 107,-402 215,-402 215,-438"/>
<text text-anchor="middle" x="161" y="-415.9" style="font-family:Times New Roman;font-size:14.00;">make_out.txt</text>
</g>
<!-- abidos_make_process.pl -->
<g id="node2" class="node"><title>abidos_make_process.pl</title>
<ellipse style="fill:none;stroke:black;" cx="161" cy="-346" rx="123.884" ry="18"/>
<text text-anchor="middle" x="161" y="-341.9" style="font-family:Times New Roman;font-size:14.00;">abidos_make_process.pl</text>
</g>
<!-- make_out.txt&#45;&gt;abidos_make_process.pl -->
<g id="edge2" class="edge"><title>make_out.txt&#45;&gt;abidos_make_process.pl</title>
<path style="fill:none;stroke:black;" d="M161,-402C161,-393 161,-384 161,-374"/>
<polygon style="fill:black;stroke:black;" points="164.5,-374 161,-364 157.5,-374 164.5,-374"/>
</g>
<!-- abidos -->
<g id="node3" class="node"><title>abidos</title>
<ellipse style="fill:none;stroke:black;" cx="143" cy="-182" rx="41.1906" ry="18"/>
<text text-anchor="middle" x="143" y="-177.9" style="font-family:Times New Roman;font-size:14.00;">abidos</text>
</g>
<!-- abidos_make_process.pl&#45;&gt;abidos -->
<g id="edge6" class="edge"><title>abidos_make_process.pl&#45;&gt;abidos</title>
<path style="fill:none;stroke:black;stroke-dasharray:1,5;" d="M92,-331C61,-320 27,-303 8,-274 0,-260 0,-251 8,-238 27,-209 63,-195 93,-188"/>
<polygon style="fill:black;stroke:black;" points="93.8806,-191.393 103,-186 92.5078,-184.529 93.8806,-191.393"/>
<text text-anchor="middle" x="41" y="-251.9" style="font-family:Times New Roman;font-size:14.00;">1 invoke</text>
</g>
<!-- xdot_run.py (show UML) -->
<g id="node4" class="node"><title>xdot_run.py (show UML)</title>
<ellipse style="fill:none;stroke:black;" cx="235" cy="-18" rx="129.248" ry="18"/>
<text text-anchor="middle" x="235" y="-13.9" style="font-family:Times New Roman;font-size:14.00;">xdot_run.py (show UML)</text>
</g>
<!-- abidos_make_process.pl&#45;&gt;xdot_run.py (show UML) -->
<g id="edge12" class="edge"><title>abidos_make_process.pl&#45;&gt;xdot_run.py (show UML)</title>
<path style="fill:none;stroke:black;stroke-dasharray:1,5;" d="M209,-329C239,-315 274,-291 274,-256 274,-256 274,-256 274,-92 274,-75 266,-58 257,-44"/>
<polygon style="fill:black;stroke:black;" points="259.8,-41.9 251,-36 254.2,-46.1 259.8,-41.9"/>
<text text-anchor="middle" x="303" y="-177.9" style="font-family:Times New Roman;font-size:14.00;">2 invoke</text>
</g>
<!-- .abidos_cpp/files_input -->
<g id="node5" class="node"><title>.abidos_cpp/files_input</title>
<polygon style="fill:none;stroke:black;" points="246,-274 76,-274 76,-238 246,-238 246,-274"/>
<text text-anchor="middle" x="161" y="-251.9" style="font-family:Times New Roman;font-size:14.00;">.abidos_cpp/files_input</text>
</g>
<!-- abidos_make_process.pl&#45;&gt;.abidos_cpp/files_input -->
<g id="edge4" class="edge"><title>abidos_make_process.pl&#45;&gt;.abidos_cpp/files_input</title>
<path style="fill:none;stroke:black;" d="M161,-328C161,-315 161,-299 161,-284"/>
<polygon style="fill:black;stroke:black;" points="164.5,-284 161,-274 157.5,-284 164.5,-284"/>
<text text-anchor="middle" x="192" y="-296.9" style="font-family:Times New Roman;font-size:14.00;">generate</text>
</g>
<!-- .abidos_cpp/files_output.dot -->
<g id="node6" class="node"><title>.abidos_cpp/files_output.dot</title>
<polygon style="fill:none;stroke:black;" points="246,-110 40,-110 40,-74 246,-74 246,-110"/>
<text text-anchor="middle" x="143" y="-87.9" style="font-family:Times New Roman;font-size:14.00;">.abidos_cpp/files_output.dot</text>
</g>
<!-- abidos&#45;&gt;.abidos_cpp/files_output.dot -->
<g id="edge10" class="edge"><title>abidos&#45;&gt;.abidos_cpp/files_output.dot</title>
<path style="fill:none;stroke:black;" d="M143,-164C143,-151 143,-135 143,-120"/>
<polygon style="fill:black;stroke:black;" points="146.5,-120 143,-110 139.5,-120 146.5,-120"/>
<text text-anchor="middle" x="174" y="-132.9" style="font-family:Times New Roman;font-size:14.00;">generate</text>
</g>
<!-- .abidos_cpp/files_input&#45;&gt;abidos -->
<g id="edge8" class="edge"><title>.abidos_cpp/files_input&#45;&gt;abidos</title>
<path style="fill:none;stroke:black;" d="M157,-238C155,-229 152,-219 150,-210"/>
<polygon style="fill:black;stroke:black;" points="153.226,-208.573 147,-200 146.521,-210.584 153.226,-208.573"/>
</g>
<!-- .abidos_cpp/files_output.dot&#45;&gt;xdot_run.py (show UML) -->
<g id="edge14" class="edge"><title>.abidos_cpp/files_output.dot&#45;&gt;xdot_run.py (show UML)</title>
<path style="fill:none;stroke:black;" d="M166,-74C177,-64 192,-52 205,-42"/>
<polygon style="fill:black;stroke:black;" points="207.1,-44.8 213,-36 202.9,-39.2 207.1,-44.8"/>
</g>
</g>
</svg>
