<?xml version="1.0" encoding="UTF-8" standalone="no"?>
<!DOCTYPE svg PUBLIC "-//W3C//DTD SVG 1.0//EN"
 "http://www.w3.org/TR/2001/REC-SVG-20010904/DTD/svg10.dtd" [
 <!ATTLIST svg xmlns:xlink CDATA #FIXED "http://www.w3.org/1999/xlink">
]>
<!-- Generated by Graphviz version 2.20.2 (Tue Mar &#160;2 19:03:41 UTC 2010)
     For user: (hevia) hevia,,, -->
<!-- Title: finite_state_machine Pages: 1 -->
<svg width="980pt" height="470pt"
 viewBox="0.00 0.00 980.00 470.00" xmlns="http://www.w3.org/2000/svg" xmlns:xlink="http://www.w3.org/1999/xlink">
<g id="graph0" class="graph" transform="scale(1 1) rotate(0) translate(4 466)">
<title>finite_state_machine</title>
<polygon style="fill:white;stroke:white;" points="-4,4 -4,-466 976,-466 976,4 -4,4"/>
<!-- S -->
<g id="node1" class="node"><title>S</title>
<ellipse style="fill:none;stroke:black;" cx="820" cy="-440" rx="18" ry="18"/>
<ellipse style="fill:none;stroke:black;" cx="820" cy="-440" rx="22" ry="22"/>
</g>
<!-- NO_CLASS_STATUS -->
<g id="node3" class="node"><title>NO_CLASS_STATUS</title>
<polyline style="fill:none;stroke:black;" points="884,-380 756,-380 "/>
<path style="fill:none;stroke:black;" d="M756,-380C750,-380 744,-374 744,-368"/>
<polyline style="fill:none;stroke:black;" points="744,-368 744,-356 "/>
<path style="fill:none;stroke:black;" d="M744,-356C744,-350 750,-344 756,-344"/>
<polyline style="fill:none;stroke:black;" points="756,-344 884,-344 "/>
<path style="fill:none;stroke:black;" d="M884,-344C890,-344 896,-350 896,-356"/>
<polyline style="fill:none;stroke:black;" points="896,-356 896,-368 "/>
<path style="fill:none;stroke:black;" d="M896,-368C896,-374 890,-380 884,-380"/>
<text text-anchor="middle" x="820" y="-357.9" style="font-family:Times New Roman;font-size:14.00;">NO_CLASS_STATUS</text>
</g>
<!-- S&#45;&gt;NO_CLASS_STATUS -->
<g id="edge2" class="edge"><title>S&#45;&gt;NO_CLASS_STATUS</title>
<path style="fill:none;stroke:black;" d="M820,-418C820,-409 820,-399 820,-390"/>
<polygon style="fill:black;stroke:black;" points="823.5,-390 820,-380 816.5,-390 823.5,-390"/>
</g>
<!-- STATUS_IDENTIFIER -->
<g id="node5" class="node"><title>STATUS_IDENTIFIER</title>
<polyline style="fill:none;stroke:black;" points="746,-306 612,-306 "/>
<path style="fill:none;stroke:black;" d="M612,-306C606,-306 600,-300 600,-294"/>
<polyline style="fill:none;stroke:black;" points="600,-294 600,-282 "/>
<path style="fill:none;stroke:black;" d="M600,-282C600,-276 606,-270 612,-270"/>
<polyline style="fill:none;stroke:black;" points="612,-270 746,-270 "/>
<path style="fill:none;stroke:black;" d="M746,-270C752,-270 758,-276 758,-282"/>
<polyline style="fill:none;stroke:black;" points="758,-282 758,-294 "/>
<path style="fill:none;stroke:black;" d="M758,-294C758,-300 752,-306 746,-306"/>
<text text-anchor="middle" x="679" y="-283.9" style="font-family:Times New Roman;font-size:14.00;">STATUS_IDENTIFIER</text>
</g>
<!-- NO_CLASS_STATUS&#45;&gt;STATUS_IDENTIFIER -->
<g id="edge4" class="edge"><title>NO_CLASS_STATUS&#45;&gt;STATUS_IDENTIFIER</title>
<path style="fill:none;stroke:black;" d="M786,-344C767,-334 743,-322 723,-311"/>
<polygon style="fill:black;stroke:black;" points="724.441,-307.797 714,-306 721.042,-313.916 724.441,-307.797"/>
</g>
<!-- STATUS_BASE_DECLARATION -->
<g id="node7" class="node"><title>STATUS_BASE_DECLARATION</title>
<polyline style="fill:none;stroke:black;" points="507,-216 307,-216 "/>
<path style="fill:none;stroke:black;" d="M307,-216C301,-216 295,-210 295,-204"/>
<polyline style="fill:none;stroke:black;" points="295,-204 295,-192 "/>
<path style="fill:none;stroke:black;" d="M295,-192C295,-186 301,-180 307,-180"/>
<polyline style="fill:none;stroke:black;" points="307,-180 507,-180 "/>
<path style="fill:none;stroke:black;" d="M507,-180C513,-180 519,-186 519,-192"/>
<polyline style="fill:none;stroke:black;" points="519,-192 519,-204 "/>
<path style="fill:none;stroke:black;" d="M519,-204C519,-210 513,-216 507,-216"/>
<text text-anchor="middle" x="407" y="-193.9" style="font-family:Times New Roman;font-size:14.00;">STATUS_BASE_DECLARATION</text>
</g>
<!-- STATUS_IDENTIFIER&#45;&gt;STATUS_BASE_DECLARATION -->
<g id="edge6" class="edge"><title>STATUS_IDENTIFIER&#45;&gt;STATUS_BASE_DECLARATION</title>
<path style="fill:none;stroke:black;" d="M624,-270C580,-255 517,-235 471,-219"/>
<polygon style="fill:black;stroke:black;" points="471.584,-215.521 461,-216 469.573,-222.226 471.584,-215.521"/>
<text text-anchor="middle" x="604" y="-238.9" style="font-family:Times New Roman;font-size:14.00;">class_head</text>
</g>
<!-- STATUS_MEMBER_SPECIFIER -->
<g id="node9" class="node"><title>STATUS_MEMBER_SPECIFIER</title>
<polyline style="fill:none;stroke:black;" points="505,-126 309,-126 "/>
<path style="fill:none;stroke:black;" d="M309,-126C303,-126 297,-120 297,-114"/>
<polyline style="fill:none;stroke:black;" points="297,-114 297,-102 "/>
<path style="fill:none;stroke:black;" d="M297,-102C297,-96 303,-90 309,-90"/>
<polyline style="fill:none;stroke:black;" points="309,-90 505,-90 "/>
<path style="fill:none;stroke:black;" d="M505,-90C511,-90 517,-96 517,-102"/>
<polyline style="fill:none;stroke:black;" points="517,-102 517,-114 "/>
<path style="fill:none;stroke:black;" d="M517,-114C517,-120 511,-126 505,-126"/>
<text text-anchor="middle" x="407" y="-103.9" style="font-family:Times New Roman;font-size:14.00;">STATUS_MEMBER_SPECIFIER</text>
</g>
<!-- STATUS_BASE_DECLARATION&#45;&gt;STATUS_MEMBER_SPECIFIER -->
<g id="edge8" class="edge"><title>STATUS_BASE_DECLARATION&#45;&gt;STATUS_MEMBER_SPECIFIER</title>
<path style="fill:none;stroke:black;" d="M407,-180C407,-167 407,-151 407,-136"/>
<polygon style="fill:black;stroke:black;" points="410.5,-136 407,-126 403.5,-136 410.5,-136"/>
<text text-anchor="middle" x="477" y="-148.9" style="font-family:Times New Roman;font-size:14.00;">member_declaration</text>
</g>
<!-- STATUS_FRIEND_DECLARATOR -->
<g id="node14" class="node"><title>STATUS_FRIEND_DECLARATOR</title>
<polyline style="fill:none;stroke:black;" points="222,-36 12,-36 "/>
<path style="fill:none;stroke:black;" d="M12,-36C6,-36 8.28967e-14,-30 6.63173e-14,-24"/>
<polyline style="fill:none;stroke:black;" points="6.63173e-14,-24 3.31587e-14,-12 "/>
<path style="fill:none;stroke:black;" d="M3.31587e-14,-12C1.65793e-14,-6 6,-1.73992e-14 12,-1.70348e-14"/>
<polyline style="fill:none;stroke:black;" points="12,-1.70348e-14 222,-4.28148e-15 "/>
<path style="fill:none;stroke:black;" d="M222,-4.28148e-15C228,-3.91709e-15 234,-6 234,-12"/>
<polyline style="fill:none;stroke:black;" points="234,-12 234,-24 "/>
<path style="fill:none;stroke:black;" d="M234,-24C234,-30 228,-36 222,-36"/>
<text text-anchor="middle" x="117" y="-13.9" style="font-family:Times New Roman;font-size:14.00;">STATUS_FRIEND_DECLARATOR</text>
</g>
<!-- STATUS_BASE_DECLARATION&#45;&gt;STATUS_FRIEND_DECLARATOR -->
<g id="edge14" class="edge"><title>STATUS_BASE_DECLARATION&#45;&gt;STATUS_FRIEND_DECLARATOR</title>
<path style="fill:none;stroke:black;" d="M333,-180C288,-168 231,-149 184,-126 146,-107 127,-108 108,-72 104,-64 104,-54 106,-46"/>
<polygon style="fill:black;stroke:black;" points="109.479,-46.584 109,-36 102.774,-44.5725 109.479,-46.584"/>
<text text-anchor="middle" x="239" y="-103.9" style="font-family:Times New Roman;font-size:14.00;">friend_specifier</text>
</g>
<!-- STATUS_MEMBER_DECLARATOR -->
<g id="node11" class="node"><title>STATUS_MEMBER_DECLARATOR</title>
<polyline style="fill:none;stroke:black;" points="760,-36 542,-36 "/>
<path style="fill:none;stroke:black;" d="M542,-36C536,-36 530,-30 530,-24"/>
<polyline style="fill:none;stroke:black;" points="530,-24 530,-12 "/>
<path style="fill:none;stroke:black;" d="M530,-12C530,-6 536,-1.74112e-14 542,-1.70589e-14"/>
<polyline style="fill:none;stroke:black;" points="542,-1.70589e-14 760,-4.25738e-15 "/>
<path style="fill:none;stroke:black;" d="M760,-4.25738e-15C766,-3.90505e-15 772,-6 772,-12"/>
<polyline style="fill:none;stroke:black;" points="772,-12 772,-24 "/>
<path style="fill:none;stroke:black;" d="M772,-24C772,-30 766,-36 760,-36"/>
<text text-anchor="middle" x="651" y="-13.9" style="font-family:Times New Roman;font-size:14.00;">STATUS_MEMBER_DECLARATOR</text>
</g>
<!-- STATUS_MEMBER_SPECIFIER&#45;&gt;STATUS_MEMBER_DECLARATOR -->
<g id="edge10" class="edge"><title>STATUS_MEMBER_SPECIFIER&#45;&gt;STATUS_MEMBER_DECLARATOR</title>
<path style="fill:none;stroke:black;" d="M499,-90C516,-85 533,-79 548,-72 559,-66 559,-60 571,-54 578,-49 587,-44 596,-40"/>
<polygon style="fill:black;stroke:black;" points="597.283,-43.2598 605,-36 594.44,-36.8631 597.283,-43.2598"/>
<text text-anchor="middle" x="641" y="-58.9" style="font-family:Times New Roman;font-size:14.00;">member_declaration</text>
</g>
<!-- STATUS_MEMBER_SPECIFIER&#45;&gt;STATUS_MEMBER_DECLARATOR -->
<g id="edge18" class="edge"><title>STATUS_MEMBER_SPECIFIER&#45;&gt;STATUS_MEMBER_DECLARATOR</title>
<path style="fill:none;stroke:black;" d="M517,-102C599,-96 698,-86 711,-72 720,-61 713,-51 701,-42"/>
<polygon style="fill:black;stroke:black;" points="702.262,-38.6349 692,-36 698.379,-44.4592 702.262,-38.6349"/>
<text text-anchor="middle" x="778" y="-58.9" style="font-family:Times New Roman;font-size:14.00;">function_definition</text>
</g>
<!-- STATUS_MEMBER_SPECIFIER&#45;&gt;STATUS_FRIEND_DECLARATOR -->
<g id="edge16" class="edge"><title>STATUS_MEMBER_SPECIFIER&#45;&gt;STATUS_FRIEND_DECLARATOR</title>
<path style="fill:none;stroke:black;" d="M297,-98C218,-90 124,-79 118,-72 111,-65 110,-55 111,-46"/>
<polygon style="fill:black;stroke:black;" points="114.488,-46.2987 112,-36 107.522,-45.6021 114.488,-46.2987"/>
<text text-anchor="middle" x="173" y="-58.9" style="font-family:Times New Roman;font-size:14.00;">friend_specifier</text>
</g>
<!-- STATUS_MEMBER_DECLARATOR&#45;&gt;NO_CLASS_STATUS -->
<g id="edge22" class="edge"><title>STATUS_MEMBER_DECLARATOR&#45;&gt;NO_CLASS_STATUS</title>
<path style="fill:none;stroke:black;" d="M772,-32C804,-37 833,-45 846,-54 868,-70 876,-80 876,-108 876,-288 876,-288 876,-288 876,-306 864,-323 851,-337"/>
<polygon style="fill:black;stroke:black;" points="848.596,-334.454 844,-344 853.546,-339.404 848.596,-334.454"/>
<text text-anchor="middle" x="924" y="-193.9" style="font-family:Times New Roman;font-size:14.00;">class_specifier</text>
</g>
<!-- STATUS_MEMBER_DECLARATOR&#45;&gt;STATUS_MEMBER_SPECIFIER -->
<g id="edge12" class="edge"><title>STATUS_MEMBER_DECLARATOR&#45;&gt;STATUS_MEMBER_SPECIFIER</title>
<path style="fill:none;stroke:black;" d="M530,-28C469,-34 407,-43 398,-54 392,-61 392,-71 394,-80"/>
<polygon style="fill:black;stroke:black;" points="390.774,-81.4275 397,-90 397.479,-79.416 390.774,-81.4275"/>
<text text-anchor="middle" x="468" y="-58.9" style="font-family:Times New Roman;font-size:14.00;">member_declaration</text>
</g>
<!-- STATUS_FRIEND_DECLARATOR&#45;&gt;STATUS_MEMBER_SPECIFIER -->
<g id="edge20" class="edge"><title>STATUS_FRIEND_DECLARATOR&#45;&gt;STATUS_MEMBER_SPECIFIER</title>
<path style="fill:none;stroke:black;" d="M180,-36C194,-41 209,-47 222,-54 234,-60 234,-66 247,-72 261,-78 276,-83 290,-87"/>
<polygon style="fill:black;stroke:black;" points="289.416,-90.4788 300,-90 291.427,-83.7741 289.416,-90.4788"/>
<text text-anchor="middle" x="320" y="-58.9" style="font-family:Times New Roman;font-size:14.00;">member_declaration</text>
</g>
</g>
</svg>
