<?xml version="1.0" encoding="UTF-8" standalone="no"?>
<!DOCTYPE svg PUBLIC "-//W3C//DTD SVG 1.0//EN"
 "http://www.w3.org/TR/2001/REC-SVG-20010904/DTD/svg10.dtd" [
 <!ATTLIST svg xmlns:xlink CDATA #FIXED "http://www.w3.org/1999/xlink">
]>
<!-- Generated by Graphviz version 2.20.2 (Tue Mar &#160;2 19:03:41 UTC 2010)
     For user: (hevia) hevia,,, -->
<!-- Title: stack_01 Pages: 1 -->
<svg width="990pt" height="599pt"
 viewBox="0.00 0.00 990.00 599.00" xmlns="http://www.w3.org/2000/svg" xmlns:xlink="http://www.w3.org/1999/xlink">
<g id="graph0" class="graph" transform="scale(1 1) rotate(0) translate(4 595)">
<title>stack_01</title>
<polygon style="fill:white;stroke:white;" points="-4,4 -4,-595 986,-595 986,4 -4,4"/>
<g id="cluster2" class="cluster"><title>cluster_variable_rule</title>
<polygon style="fill:none;stroke:black;" points="283,-180 283,-527 449,-527 449,-180 283,-180"/>
<text text-anchor="middle" x="366" y="-510.9" style="font-family:Times New Roman;font-size:14.00;">VARIABLE_rule</text>
</g>
<g id="cluster3" class="cluster"><title>cluster_function_rule</title>
<polygon style="fill:none;stroke:black;" points="610,-90 610,-527 776,-527 776,-90 610,-90"/>
<text text-anchor="middle" x="693" y="-510.9" style="font-family:Times New Roman;font-size:14.00;">FUNCTION_rule</text>
</g>
<!-- s -->
<g id="node1" class="node"><title>s</title>
<polygon style="fill:none;stroke:black;" points="487,-555 487,-591 541,-591 541,-555 487,-555"/>
<text text-anchor="middle" x="514" y="-574.4" style="font-family:Times New Roman;font-size:14.00;">S</text>
</g>
<!-- t1 -->
<g id="node8" class="node"><title>t1</title>
<ellipse style="fill:none;stroke:black;" cx="366" cy="-476" rx="75.2406" ry="18"/>
<text text-anchor="middle" x="366" y="-471.9" style="font-family:Times New Roman;font-size:14.00;"> token_next()</text>
</g>
<!-- s&#45;&gt;t1 -->
<g id="edge18" class="edge"><title>s&#45;&gt;t1</title>
<path style="fill:none;stroke:black;" d="M487,-555C463,-539 427,-515 401,-498"/>
<polygon style="fill:black;stroke:black;" points="402.441,-494.797 392,-493 399.042,-500.916 402.441,-494.797"/>
</g>
<!-- tf1 -->
<g id="node21" class="node"><title>tf1</title>
<ellipse style="fill:none;stroke:black;" cx="693" cy="-476" rx="75.2406" ry="18"/>
<text text-anchor="middle" x="693" y="-471.9" style="font-family:Times New Roman;font-size:14.00;"> token_next()</text>
</g>
<!-- s&#45;&gt;tf1 -->
<g id="edge20" class="edge"><title>s&#45;&gt;tf1</title>
<path style="fill:none;stroke:black;" d="M541,-559C544,-558 547,-556 550,-555 579,-541 587,-541 614,-527 630,-519 646,-508 660,-498"/>
<polygon style="fill:black;stroke:black;" points="661.958,-500.916 669,-493 658.559,-494.797 661.958,-500.916"/>
</g>
<!-- s1 -->
<g id="node2" class="node"><title>s1</title>
<polygon style="fill:none;stroke:black;" points="206,-368 206,-404 260,-404 260,-368 206,-368"/>
<text text-anchor="middle" x="233" y="-387.4" style="font-family:Times New Roman;font-size:14.00;">int</text>
</g>
<!-- s2 -->
<g id="node3" class="node"><title>s2</title>
<polygon style="fill:none;stroke:black;" points="201,-278 201,-314 257,-314 257,-278 201,-278"/>
<text text-anchor="middle" x="218" y="-297.4" style="font-family:Times New Roman;font-size:14.00;">int</text>
<polyline style="fill:none;stroke:black;" points="236,-278 236,-314 "/>
<text text-anchor="middle" x="246" y="-297.4" style="font-family:Times New Roman;font-size:14.00;">f</text>
</g>
<!-- s1&#45;&gt;s2 -->
<!-- s3 -->
<g id="node4" class="node"><title>s3</title>
<polygon style="fill:none;stroke:black;" points="196,-188 196,-224 273,-224 273,-188 196,-188"/>
<text text-anchor="middle" x="213" y="-207.4" style="font-family:Times New Roman;font-size:14.00;">int</text>
<polyline style="fill:none;stroke:black;" points="231,-188 231,-224 "/>
<text text-anchor="middle" x="241" y="-207.4" style="font-family:Times New Roman;font-size:14.00;">f</text>
<polyline style="fill:none;stroke:black;" points="252,-188 252,-224 "/>
<text text-anchor="middle" x="262" y="-207.4" style="font-family:Times New Roman;font-size:14.00;">(</text>
</g>
<!-- s2&#45;&gt;s3 -->
<!-- s4 -->
<g id="node5" class="node"><title>s4</title>
<polygon style="fill:none;stroke:black;" points="196,-98 196,-134 273,-134 273,-98 196,-98"/>
<text text-anchor="middle" x="213" y="-117.4" style="font-family:Times New Roman;font-size:14.00;">int</text>
<polyline style="fill:none;stroke:black;" points="231,-98 231,-134 "/>
<text text-anchor="middle" x="241" y="-117.4" style="font-family:Times New Roman;font-size:14.00;">f</text>
<polyline style="fill:none;stroke:black;" points="252,-98 252,-134 "/>
<text text-anchor="middle" x="262" y="-117.4" style="font-family:Times New Roman;font-size:14.00;">(</text>
</g>
<!-- s3&#45;&gt;s4 -->
<!-- s4_note -->
<g id="node6" class="node"><title>s4_note</title>
<polygon style="fill:none;stroke:black;" points="172,-224 8.52651e-14,-224 0,-188 178,-188 178,-218 172,-224"/>
<polyline style="fill:none;stroke:black;" points="172,-224 172,-218 "/>
<polyline style="fill:none;stroke:black;" points="178,-218 172,-218 "/>
<text text-anchor="middle" x="89" y="-201.9" style="font-family:Times New Roman;font-size:14.00;">context.itoken restored</text>
</g>
<!-- s4_note&#45;&gt;s4 -->
<g id="edge55" class="edge"><title>s4_note&#45;&gt;s4</title>
<path style="fill:none;stroke:black;stroke-dasharray:1,5;" d="M118,-188C138,-175 165,-158 188,-140"/>
<polygon style="fill:black;stroke:black;" points="190.1,-142.8 196,-134 185.9,-137.2 190.1,-142.8"/>
</g>
<!-- t1_note -->
<g id="node7" class="node"><title>t1_note</title>
<polygon style="fill:none;stroke:black;" points="463,-591 243,-591 243,-555 469,-555 469,-585 463,-591"/>
<polyline style="fill:none;stroke:black;" points="463,-591 463,-585 "/>
<polyline style="fill:none;stroke:black;" points="469,-585 463,-585 "/>
<text text-anchor="middle" x="356" y="-568.9" style="font-family:Times New Roman;font-size:14.00;">&quot;int&quot; &quot;f&quot; &quot;(&quot; are read from lexer</text>
</g>
<!-- t1_note&#45;&gt;t1 -->
<g id="edge34" class="edge"><title>t1_note&#45;&gt;t1</title>
<path style="fill:none;stroke:black;stroke-dasharray:1,5;" d="M358,-555C360,-541 361,-521 363,-504"/>
<polygon style="fill:black;stroke:black;" points="366.488,-504.299 364,-494 359.522,-503.602 366.488,-504.299"/>
</g>
<!-- t2 -->
<g id="node9" class="node"><title>t2</title>
<ellipse style="fill:none;stroke:black;" cx="366" cy="-386" rx="75.2406" ry="18"/>
<text text-anchor="middle" x="366" y="-381.9" style="font-family:Times New Roman;font-size:14.00;"> token_next()</text>
</g>
<!-- t1_note&#45;&gt;t2 -->
<g id="edge36" class="edge"><title>t1_note&#45;&gt;t2</title>
<path style="fill:none;stroke:black;stroke-dasharray:1,5;" d="M316,-555C304,-548 291,-538 282,-527 253,-488 228,-460 256,-422 262,-413 281,-406 300,-401"/>
<polygon style="fill:black;stroke:black;" points="301.427,-404.226 310,-398 299.416,-397.521 301.427,-404.226"/>
</g>
<!-- t3 -->
<g id="node10" class="node"><title>t3</title>
<ellipse style="fill:none;stroke:black;" cx="366" cy="-296" rx="75.2406" ry="18"/>
<text text-anchor="middle" x="366" y="-291.9" style="font-family:Times New Roman;font-size:14.00;"> token_next()</text>
</g>
<!-- t1_note&#45;&gt;t3 -->
<g id="edge38" class="edge"><title>t1_note&#45;&gt;t3</title>
<path style="fill:none;stroke:black;stroke-dasharray:1,5;" d="M418,-555C431,-548 442,-539 450,-527 488,-467 480,-432 450,-368 441,-348 423,-331 406,-319"/>
<polygon style="fill:black;stroke:black;" points="407.262,-315.635 397,-313 403.379,-321.459 407.262,-315.635"/>
</g>
<!-- t1&#45;&gt;s1 -->
<g id="edge26" class="edge"><title>t1&#45;&gt;s1</title>
<path style="fill:none;stroke:black;stroke-dasharray:5,2;" d="M316,-462C301,-457 285,-450 272,-440 263,-432 255,-422 248,-413"/>
<polygon style="fill:black;stroke:black;" points="250.916,-411.042 243,-404 244.797,-414.441 250.916,-411.042"/>
<text text-anchor="middle" x="329" y="-426.9" style="font-family:Times New Roman;font-size:14.00;">context.i_token</text>
</g>
<!-- t1&#45;&gt;t2 -->
<g id="edge3" class="edge"><title>t1&#45;&gt;t2</title>
<path style="fill:none;stroke:black;" d="M377,-458C379,-452 382,-446 383,-440 385,-432 385,-429 383,-422 383,-419 382,-416 381,-413"/>
<polygon style="fill:black;stroke:black;" points="384.26,-411.717 377,-404 377.863,-414.56 384.26,-411.717"/>
</g>
<!-- t2&#45;&gt;s2 -->
<g id="edge28" class="edge"><title>t2&#45;&gt;s2</title>
<path style="fill:none;stroke:black;stroke-dasharray:5,2;" d="M312,-373C288,-367 263,-359 255,-350 249,-343 247,-333 246,-324"/>
<polygon style="fill:black;stroke:black;" points="249.478,-323.602 245,-314 242.512,-324.299 249.478,-323.602"/>
<text text-anchor="middle" x="312" y="-336.9" style="font-family:Times New Roman;font-size:14.00;">context.i_token</text>
</g>
<!-- t2&#45;&gt;t3 -->
<g id="edge5" class="edge"><title>t2&#45;&gt;t3</title>
<path style="fill:none;stroke:black;" d="M366,-368C366,-355 366,-339 366,-324"/>
<polygon style="fill:black;stroke:black;" points="369.5,-324 366,-314 362.5,-324 369.5,-324"/>
</g>
<!-- t3&#45;&gt;s3 -->
<g id="edge30" class="edge"><title>t3&#45;&gt;s3</title>
<path style="fill:none;stroke:black;stroke-dasharray:5,2;" d="M312,-283C289,-277 266,-269 259,-260 254,-253 253,-243 254,-234"/>
<polygon style="fill:black;stroke:black;" points="257.471,-234.492 256,-224 250.607,-233.119 257.471,-234.492"/>
<text text-anchor="middle" x="316" y="-246.9" style="font-family:Times New Roman;font-size:14.00;">context.i_token</text>
</g>
<!-- t4 -->
<g id="node11" class="node"><title>t4</title>
<ellipse style="fill:none;stroke:black;" cx="359" cy="-206" rx="50.9221" ry="18"/>
<text text-anchor="middle" x="359" y="-201.9" style="font-family:Times New Roman;font-size:14.00;"> retore()</text>
</g>
<!-- t3&#45;&gt;t4 -->
<g id="edge7" class="edge"><title>t3&#45;&gt;t4</title>
<path style="fill:none;stroke:black;" d="M369,-278C371,-267 372,-254 370,-242 370,-239 369,-237 369,-234"/>
<polygon style="fill:black;stroke:black;" points="372.226,-232.573 366,-224 365.521,-234.584 372.226,-232.573"/>
</g>
<!-- t4&#45;&gt;s4 -->
<g id="edge32" class="edge"><title>t4&#45;&gt;s4</title>
<path style="fill:none;stroke:black;stroke-dasharray:5,2;" d="M329,-191C304,-179 269,-161 239,-140"/>
<polygon style="fill:black;stroke:black;" points="241.1,-137.2 231,-134 236.9,-142.8 241.1,-137.2"/>
<text text-anchor="middle" x="344" y="-156.9" style="font-family:Times New Roman;font-size:14.00;">context.i_token</text>
</g>
<!-- sf1 -->
<g id="node16" class="node"><title>sf1</title>
<polygon style="fill:none;stroke:black;" points="517,-368 517,-404 594,-404 594,-368 517,-368"/>
<text text-anchor="middle" x="534" y="-387.4" style="font-family:Times New Roman;font-size:14.00;">int</text>
<polyline style="fill:none;stroke:black;" points="552,-368 552,-404 "/>
<text text-anchor="middle" x="562" y="-387.4" style="font-family:Times New Roman;font-size:14.00;">f</text>
<polyline style="fill:none;stroke:black;" points="573,-368 573,-404 "/>
<text text-anchor="middle" x="583" y="-387.4" style="font-family:Times New Roman;font-size:14.00;">(</text>
</g>
<!-- sf2 -->
<g id="node17" class="node"><title>sf2</title>
<polygon style="fill:none;stroke:black;" points="509,-278 509,-314 586,-314 586,-278 509,-278"/>
<text text-anchor="middle" x="526" y="-297.4" style="font-family:Times New Roman;font-size:14.00;">int</text>
<polyline style="fill:none;stroke:black;" points="544,-278 544,-314 "/>
<text text-anchor="middle" x="554" y="-297.4" style="font-family:Times New Roman;font-size:14.00;">f</text>
<polyline style="fill:none;stroke:black;" points="565,-278 565,-314 "/>
<text text-anchor="middle" x="575" y="-297.4" style="font-family:Times New Roman;font-size:14.00;">(</text>
</g>
<!-- sf1&#45;&gt;sf2 -->
<!-- sf3 -->
<g id="node18" class="node"><title>sf3</title>
<polygon style="fill:none;stroke:black;" points="511,-188 511,-224 588,-224 588,-188 511,-188"/>
<text text-anchor="middle" x="528" y="-207.4" style="font-family:Times New Roman;font-size:14.00;">int</text>
<polyline style="fill:none;stroke:black;" points="546,-188 546,-224 "/>
<text text-anchor="middle" x="556" y="-207.4" style="font-family:Times New Roman;font-size:14.00;">f</text>
<polyline style="fill:none;stroke:black;" points="567,-188 567,-224 "/>
<text text-anchor="middle" x="577" y="-207.4" style="font-family:Times New Roman;font-size:14.00;">(</text>
</g>
<!-- sf2&#45;&gt;sf3 -->
<!-- sf4 -->
<g id="node19" class="node"><title>sf4</title>
<polygon style="fill:none;stroke:black;" points="500,-98 500,-134 598,-134 598,-98 500,-98"/>
<text text-anchor="middle" x="517" y="-117.4" style="font-family:Times New Roman;font-size:14.00;">int</text>
<polyline style="fill:none;stroke:black;" points="535,-98 535,-134 "/>
<text text-anchor="middle" x="545" y="-117.4" style="font-family:Times New Roman;font-size:14.00;">f</text>
<polyline style="fill:none;stroke:black;" points="556,-98 556,-134 "/>
<text text-anchor="middle" x="566" y="-117.4" style="font-family:Times New Roman;font-size:14.00;">(</text>
<polyline style="fill:none;stroke:black;" points="577,-98 577,-134 "/>
<text text-anchor="middle" x="587" y="-117.4" style="font-family:Times New Roman;font-size:14.00;">)</text>
</g>
<!-- sf3&#45;&gt;sf4 -->
<!-- sf5 -->
<g id="node20" class="node"><title>sf5</title>
<polygon style="fill:none;stroke:black;" points="561,-8 561,-44 680,-44 680,-8 561,-8"/>
<text text-anchor="middle" x="578" y="-27.4" style="font-family:Times New Roman;font-size:14.00;">int</text>
<polyline style="fill:none;stroke:black;" points="596,-8 596,-44 "/>
<text text-anchor="middle" x="606" y="-27.4" style="font-family:Times New Roman;font-size:14.00;">f</text>
<polyline style="fill:none;stroke:black;" points="617,-8 617,-44 "/>
<text text-anchor="middle" x="627" y="-27.4" style="font-family:Times New Roman;font-size:14.00;">(</text>
<polyline style="fill:none;stroke:black;" points="638,-8 638,-44 "/>
<text text-anchor="middle" x="648" y="-27.4" style="font-family:Times New Roman;font-size:14.00;">)</text>
<polyline style="fill:none;stroke:black;" points="659,-8 659,-44 "/>
<text text-anchor="middle" x="669" y="-27.4" style="font-family:Times New Roman;font-size:14.00;">;</text>
</g>
<!-- sf4&#45;&gt;sf5 -->
<!-- tf1&#45;&gt;sf1 -->
<g id="edge45" class="edge"><title>tf1&#45;&gt;sf1</title>
<path style="fill:none;stroke:black;stroke-dasharray:5,2;" d="M654,-461C627,-449 590,-432 560,-410"/>
<polygon style="fill:black;stroke:black;" points="562.1,-407.2 552,-404 557.9,-412.8 562.1,-407.2"/>
<text text-anchor="middle" x="666" y="-426.9" style="font-family:Times New Roman;font-size:14.00;">context.i_token</text>
</g>
<!-- tf2 -->
<g id="node23" class="node"><title>tf2</title>
<ellipse style="fill:none;stroke:black;" cx="693" cy="-386" rx="75.2406" ry="18"/>
<text text-anchor="middle" x="693" y="-381.9" style="font-family:Times New Roman;font-size:14.00;"> token_next()</text>
</g>
<!-- tf1&#45;&gt;tf2 -->
<g id="edge10" class="edge"><title>tf1&#45;&gt;tf2</title>
<path style="fill:none;stroke:black;" d="M711,-458C716,-453 720,-447 723,-440 725,-432 725,-429 723,-422 722,-419 720,-415 718,-412"/>
<polygon style="fill:black;stroke:black;" points="720.8,-409.9 712,-404 715.2,-414.1 720.8,-409.9"/>
</g>
<!-- tf1_note -->
<g id="node22" class="node"><title>tf1_note</title>
<polygon style="fill:none;stroke:black;" points="841,-591 559,-591 559,-555 847,-555 847,-585 841,-591"/>
<polyline style="fill:none;stroke:black;" points="841,-591 841,-585 "/>
<polyline style="fill:none;stroke:black;" points="847,-585 841,-585 "/>
<text text-anchor="middle" x="703" y="-568.9" style="font-family:Times New Roman;font-size:14.00;">&quot;int&quot; &quot;f&quot; &quot;(&quot; are read from tokens_vector</text>
</g>
<!-- tf1_note&#45;&gt;tf1 -->
<g id="edge57" class="edge"><title>tf1_note&#45;&gt;tf1</title>
<path style="fill:none;stroke:black;stroke-dasharray:1,5;" d="M701,-555C699,-541 698,-521 696,-504"/>
<polygon style="fill:black;stroke:black;" points="699.478,-503.602 695,-494 692.512,-504.299 699.478,-503.602"/>
</g>
<!-- tf1_note&#45;&gt;tf2 -->
<g id="edge59" class="edge"><title>tf1_note&#45;&gt;tf2</title>
<path style="fill:none;stroke:black;stroke-dasharray:1,5;" d="M645,-555C631,-548 618,-539 609,-527 586,-495 599,-478 596,-440 596,-432 592,-428 596,-422 601,-415 616,-409 632,-403"/>
<polygon style="fill:black;stroke:black;" points="634.015,-405.964 642,-399 631.415,-399.464 634.015,-405.964"/>
</g>
<!-- tf3 -->
<g id="node24" class="node"><title>tf3</title>
<ellipse style="fill:none;stroke:black;" cx="693" cy="-296" rx="75.2406" ry="18"/>
<text text-anchor="middle" x="693" y="-291.9" style="font-family:Times New Roman;font-size:14.00;"> token_next()</text>
</g>
<!-- tf1_note&#45;&gt;tf3 -->
<g id="edge61" class="edge"><title>tf1_note&#45;&gt;tf3</title>
<path style="fill:none;stroke:black;stroke-dasharray:1,5;" d="M747,-555C759,-548 770,-539 777,-527 811,-465 806,-432 777,-368 768,-348 749,-331 732,-319"/>
<polygon style="fill:black;stroke:black;" points="733.262,-315.635 723,-313 729.379,-321.459 733.262,-315.635"/>
</g>
<!-- tf2&#45;&gt;sf2 -->
<g id="edge47" class="edge"><title>tf2&#45;&gt;sf2</title>
<path style="fill:none;stroke:black;stroke-dasharray:5,2;" d="M642,-373C618,-366 592,-358 582,-350 574,-343 568,-333 564,-324"/>
<polygon style="fill:black;stroke:black;" points="566.964,-321.985 560,-314 560.464,-324.585 566.964,-321.985"/>
<text text-anchor="middle" x="640" y="-336.9" style="font-family:Times New Roman;font-size:14.00;">context.i_token</text>
</g>
<!-- tf2&#45;&gt;tf3 -->
<g id="edge12" class="edge"><title>tf2&#45;&gt;tf3</title>
<path style="fill:none;stroke:black;" d="M693,-368C693,-355 693,-339 693,-324"/>
<polygon style="fill:black;stroke:black;" points="696.5,-324 693,-314 689.5,-324 696.5,-324"/>
</g>
<!-- tf3&#45;&gt;sf3 -->
<g id="edge49" class="edge"><title>tf3&#45;&gt;sf3</title>
<path style="fill:none;stroke:black;stroke-dasharray:5,2;" d="M638,-284C614,-278 590,-269 582,-260 576,-253 574,-243 574,-234"/>
<polygon style="fill:black;stroke:black;" points="577.5,-234 574,-224 570.5,-234 577.5,-234"/>
<text text-anchor="middle" x="639" y="-246.9" style="font-family:Times New Roman;font-size:14.00;">context.i_token</text>
</g>
<!-- tf4 -->
<g id="node25" class="node"><title>tf4</title>
<ellipse style="fill:none;stroke:black;" cx="693" cy="-206" rx="75.2406" ry="18"/>
<text text-anchor="middle" x="693" y="-201.9" style="font-family:Times New Roman;font-size:14.00;"> token_next()</text>
</g>
<!-- tf3&#45;&gt;tf4 -->
<g id="edge14" class="edge"><title>tf3&#45;&gt;tf4</title>
<path style="fill:none;stroke:black;" d="M693,-278C693,-265 693,-249 693,-234"/>
<polygon style="fill:black;stroke:black;" points="696.5,-234 693,-224 689.5,-234 696.5,-234"/>
</g>
<!-- tf4&#45;&gt;sf4 -->
<g id="edge51" class="edge"><title>tf4&#45;&gt;sf4</title>
<path style="fill:none;stroke:black;stroke-dasharray:5,2;" d="M650,-191C638,-188 626,-184 614,-180 600,-175 591,-182 582,-170 577,-163 576,-153 577,-144"/>
<polygon style="fill:black;stroke:black;" points="580.479,-144.584 580,-134 573.774,-142.573 580.479,-144.584"/>
<text text-anchor="middle" x="639" y="-156.9" style="font-family:Times New Roman;font-size:14.00;">context.i_token</text>
</g>
<!-- tf5 -->
<g id="node27" class="node"><title>tf5</title>
<ellipse style="fill:none;stroke:black;" cx="693" cy="-116" rx="75.2406" ry="18"/>
<text text-anchor="middle" x="693" y="-111.9" style="font-family:Times New Roman;font-size:14.00;"> token_next()</text>
</g>
<!-- tf4&#45;&gt;tf5 -->
<g id="edge16" class="edge"><title>tf4&#45;&gt;tf5</title>
<path style="fill:none;stroke:black;" d="M693,-188C693,-175 693,-159 693,-144"/>
<polygon style="fill:black;stroke:black;" points="696.5,-144 693,-134 689.5,-144 696.5,-144"/>
</g>
<!-- tf4_note -->
<g id="node26" class="node"><title>tf4_note</title>
<polygon style="fill:none;stroke:black;" points="976,-404 824,-404 824,-368 982,-368 982,-398 976,-404"/>
<polyline style="fill:none;stroke:black;" points="976,-404 976,-398 "/>
<polyline style="fill:none;stroke:black;" points="982,-398 976,-398 "/>
<text text-anchor="middle" x="903" y="-381.9" style="font-family:Times New Roman;font-size:14.00;">&quot;)&quot; is read from lexer</text>
</g>
<!-- tf4_note&#45;&gt;tf4 -->
<g id="edge63" class="edge"><title>tf4_note&#45;&gt;tf4</title>
<path style="fill:none;stroke:black;stroke-dasharray:1,5;" d="M882,-368C843,-335 763,-267 721,-231"/>
<polygon style="fill:black;stroke:black;" points="722.831,-227.951 713,-224 718.221,-233.219 722.831,-227.951"/>
</g>
<!-- tf5&#45;&gt;sf5 -->
<g id="edge53" class="edge"><title>tf5&#45;&gt;sf5</title>
<path style="fill:none;stroke:black;stroke-dasharray:5,2;" d="M688,-98C685,-85 680,-68 677,-54"/>
<polygon style="fill:black;stroke:black;" points="680.226,-52.5725 674,-44 673.521,-54.584 680.226,-52.5725"/>
<text text-anchor="middle" x="736" y="-66.9" style="font-family:Times New Roman;font-size:14.00;">context.i_token</text>
</g>
</g>
</svg>
