<?xml version="1.0" encoding="UTF-8" standalone="no"?>
<!DOCTYPE svg PUBLIC "-//W3C//DTD SVG 1.0//EN"
 "http://www.w3.org/TR/2001/REC-SVG-20010904/DTD/svg10.dtd" [
 <!ATTLIST svg xmlns:xlink CDATA #FIXED "http://www.w3.org/1999/xlink">
]>
<!-- Generated by Graphviz version 2.20.2 (Tue Mar &#160;2 19:03:41 UTC 2010)
     For user: (hevia) hevia,,, -->
<!-- Title: G Pages: 1 -->
<svg width="578pt" height="1168pt"
 viewBox="0.00 0.00 578.00 1168.00" xmlns="http://www.w3.org/2000/svg" xmlns:xlink="http://www.w3.org/1999/xlink">
<g id="graph0" class="graph" transform="scale(1 1) rotate(0) translate(4 1164)">
<title>G</title>
<polygon style="fill:white;stroke:white;" points="-4,4 -4,-1164 574,-1164 574,4 -4,4"/>
<!-- c_class_members -->
<g id="node1" class="node"><title>c_class_members</title>
<polygon style="fill:none;stroke:black;" points="0,-34 0,-169 338,-169 338,-34 0,-34"/>
<text text-anchor="middle" x="169" y="-151.9" style="font-family:Times New Roman;font-size:14.00;">c_class_members</text>
<polyline style="fill:none;stroke:black;" points="0,-144 338,-144 "/>
<text text-anchor="start" x="8" y="-127.4" style="font-family:Times New Roman;font-size:14.00;">&#45; t_map_class_member map_class_member</text>
<text text-anchor="start" x="8" y="-110.4" style="font-family:Times New Roman;font-size:14.00;">&#45; t_vector_class_member vector_class_member</text>
<text text-anchor="start" x="8" y="-93.4" style="font-family:Times New Roman;font-size:14.00;">+ void clear(void)</text>
<text text-anchor="start" x="8" y="-76.4" style="font-family:Times New Roman;font-size:14.00;">+ void print(const char *)</text>
<text text-anchor="start" x="8" y="-59.4" style="font-family:Times New Roman;font-size:14.00;">+ void insert(c_class_member)</text>
<text text-anchor="start" x="8" y="-42.4" style="font-family:Times New Roman;font-size:14.00;">+ c_class_member * get(std::string)</text>
</g>
<!-- c_symbol -->
<g id="node2" class="node"><title>c_symbol</title>
<polygon style="fill:none;stroke:black;" points="99,-240 99,-766 534,-766 534,-240 99,-240"/>
<text text-anchor="middle" x="316" y="-748.9" style="font-family:Times New Roman;font-size:14.00;">c_symbol</text>
<polyline style="fill:none;stroke:black;" points="99,-741 534,-741 "/>
<text text-anchor="start" x="106.5" y="-723.9" style="font-family:Times New Roman;font-size:14.00;">&#45; t_map_base_class map_base_class</text>
<text text-anchor="start" x="106.5" y="-706.9" style="font-family:Times New Roman;font-size:14.00;">&#45; t_vector_base_class vector_base_class</text>
<text text-anchor="start" x="106.5" y="-689.9" style="font-family:Times New Roman;font-size:14.00;">&#45; t_map_friend_class map_friend_class</text>
<text text-anchor="start" x="106.5" y="-672.9" style="font-family:Times New Roman;font-size:14.00;">&#45; t_vector_friend_class vector_friend_class</text>
<text text-anchor="start" x="106.5" y="-655.9" style="font-family:Times New Roman;font-size:14.00;">+ void insert_base_class(c_base_class)</text>
<text text-anchor="start" x="106.5" y="-638.9" style="font-family:Times New Roman;font-size:14.00;">+ void insert_friend_class(c_friend_class)</text>
<text text-anchor="start" x="106.5" y="-621.9" style="font-family:Times New Roman;font-size:14.00;">+ std::string text</text>
<text text-anchor="start" x="106.5" y="-604.9" style="font-family:Times New Roman;font-size:14.00;">+ c_token token</text>
<text text-anchor="start" x="106.5" y="-587.9" style="font-family:Times New Roman;font-size:14.00;">+ int type</text>
<text text-anchor="start" x="106.5" y="-570.9" style="font-family:Times New Roman;font-size:14.00;">+ int class_key</text>
<text text-anchor="start" x="106.5" y="-553.9" style="font-family:Times New Roman;font-size:14.00;">+ int is_abstract</text>
<text text-anchor="start" x="106.5" y="-536.9" style="font-family:Times New Roman;font-size:14.00;">+ c_class_members members</text>
<text text-anchor="start" x="106.5" y="-519.9" style="font-family:Times New Roman;font-size:14.00;">+ int free_declarator</text>
<text text-anchor="start" x="106.5" y="-502.9" style="font-family:Times New Roman;font-size:14.00;">+ c_declarator declarator</text>
<text text-anchor="start" x="106.5" y="-485.9" style="font-family:Times New Roman;font-size:14.00;">+ int is_typedef</text>
<text text-anchor="start" x="106.5" y="-468.9" style="font-family:Times New Roman;font-size:14.00;">+ std::string typedef_points_to</text>
<text text-anchor="start" x="106.5" y="-451.9" style="font-family:Times New Roman;font-size:14.00;">+ int is_template</text>
<text text-anchor="start" x="106.5" y="-434.9" style="font-family:Times New Roman;font-size:14.00;">+ t_vector_template_parameter vector_template_parameter</text>
<text text-anchor="start" x="106.5" y="-417.9" style="font-family:Times New Roman;font-size:14.00;">+ t_map_template_parameter map_template_parameter</text>
<text text-anchor="start" x="106.5" y="-400.9" style="font-family:Times New Roman;font-size:14.00;">+ int is_template_instantiation</text>
<text text-anchor="start" x="106.5" y="-383.9" style="font-family:Times New Roman;font-size:14.00;">+ t_vector_template_argument vector_template_argument</text>
<text text-anchor="start" x="106.5" y="-366.9" style="font-family:Times New Roman;font-size:14.00;">+ t_map_template_argument map_template_argument</text>
<text text-anchor="start" x="106.5" y="-349.9" style="font-family:Times New Roman;font-size:14.00;">+ int class_pre_declaration</text>
<text text-anchor="start" x="106.5" y="-332.9" style="font-family:Times New Roman;font-size:14.00;">+ int is_banned</text>
<text text-anchor="start" x="106.5" y="-315.9" style="font-family:Times New Roman;font-size:14.00;">+ c_symbol()</text>
<text text-anchor="start" x="106.5" y="-298.9" style="font-family:Times New Roman;font-size:14.00;">+ c_symbol(c_token)</text>
<text text-anchor="start" x="106.5" y="-281.9" style="font-family:Times New Roman;font-size:14.00;">+ ~c_symbol()</text>
<text text-anchor="start" x="106.5" y="-264.9" style="font-family:Times New Roman;font-size:14.00;">+ void process_token_text()</text>
<text text-anchor="start" x="106.5" y="-247.9" style="font-family:Times New Roman;font-size:14.00;">+ void print(const char *)</text>
</g>
<!-- c_symbol&#45;&gt;c_class_members -->
<g id="edge4" class="edge"><title>c_symbol&#45;&gt;c_class_members</title>
<path style="fill:none;stroke:gray;" d="M215,-229C207,-207 200,-187 194,-169"/>
<polygon style="fill:gray;stroke:gray;" points="214.899,-228.722 220.709,-232.994 219,-240 213.19,-235.728 214.899,-228.722"/>
</g>
<!-- c_token -->
<g id="node4" class="node"><title>c_token</title>
<polygon style="fill:none;stroke:black;" points="356,-0 356,-203 570,-203 570,-0 356,-0"/>
<text text-anchor="middle" x="463" y="-185.9" style="font-family:Times New Roman;font-size:14.00;">c_token</text>
<polyline style="fill:none;stroke:black;" points="356,-178 570,-178 "/>
<text text-anchor="start" x="364" y="-161.4" style="font-family:Times New Roman;font-size:14.00;">+ int id</text>
<text text-anchor="start" x="364" y="-144.4" style="font-family:Times New Roman;font-size:14.00;">+ std::string text</text>
<text text-anchor="start" x="364" y="-127.4" style="font-family:Times New Roman;font-size:14.00;">+ std::string file</text>
<text text-anchor="start" x="364" y="-110.4" style="font-family:Times New Roman;font-size:14.00;">+ int line</text>
<text text-anchor="start" x="364" y="-93.4" style="font-family:Times New Roman;font-size:14.00;">+ c_token()</text>
<text text-anchor="start" x="364" y="-76.4" style="font-family:Times New Roman;font-size:14.00;">+ c_token(int,const char *)</text>
<text text-anchor="start" x="364" y="-59.4" style="font-family:Times New Roman;font-size:14.00;">+ void clear(void)</text>
<text text-anchor="start" x="364" y="-42.4" style="font-family:Times New Roman;font-size:14.00;">+ void save(c_token token)</text>
<text text-anchor="start" x="364" y="-25.4" style="font-family:Times New Roman;font-size:14.00;">+ void save(int,const char *)</text>
<text text-anchor="start" x="364" y="-8.4" style="font-family:Times New Roman;font-size:14.00;">+ void print(const char *)</text>
</g>
<!-- c_symbol&#45;&gt;c_token -->
<g id="edge2" class="edge"><title>c_symbol&#45;&gt;c_token</title>
<path style="fill:none;stroke:gray;" d="M417,-229C420,-220 423,-211 426,-203"/>
<polygon style="fill:gray;stroke:gray;" points="417.101,-228.722 418.81,-235.728 413,-240 411.291,-232.994 417.101,-228.722"/>
</g>
<!-- c_symbols_table -->
<g id="node3" class="node"><title>c_symbols_table</title>
<polygon style="fill:none;stroke:black;" points="166,-974 166,-1160 467,-1160 467,-974 166,-974"/>
<text text-anchor="middle" x="316" y="-1142.9" style="font-family:Times New Roman;font-size:14.00;">c_symbols_table</text>
<polyline style="fill:none;stroke:black;" points="166,-1135 467,-1135 "/>
<text text-anchor="start" x="173.5" y="-1117.9" style="font-family:Times New Roman;font-size:14.00;">&#45; stack_symbols stack</text>
<text text-anchor="start" x="173.5" y="-1100.9" style="font-family:Times New Roman;font-size:14.00;">+ c_symbols_table()</text>
<text text-anchor="start" x="173.5" y="-1083.9" style="font-family:Times New Roman;font-size:14.00;">+ ~c_symbols_table()</text>
<text text-anchor="start" x="173.5" y="-1066.9" style="font-family:Times New Roman;font-size:14.00;">+ void set()</text>
<text text-anchor="start" x="173.5" y="-1049.9" style="font-family:Times New Roman;font-size:14.00;">+ void unset()</text>
<text text-anchor="start" x="173.5" y="-1032.9" style="font-family:Times New Roman;font-size:14.00;">+ void insert(c_symbol)</text>
<text text-anchor="start" x="173.5" y="-1015.9" style="font-family:Times New Roman;font-size:14.00;">+ void change_key(std::string,std::string)</text>
<text text-anchor="start" x="173.5" y="-998.9" style="font-family:Times New Roman;font-size:14.00;">+ void print(void)</text>
<text text-anchor="start" x="173.5" y="-981.9" style="font-family:Times New Roman;font-size:14.00;">+ c_symbol * search_symbol(std::string)</text>
</g>
<!-- stack_symbols -->
<g id="node5" class="node"><title>stack_symbols</title>
<polygon style="fill:none;stroke:black;" points="259,-888 259,-938 373,-938 373,-888 259,-888"/>
<text text-anchor="middle" x="316" y="-920.9" style="font-family:Times New Roman;font-size:14.00;">stack_symbols</text>
<polyline style="fill:none;stroke:black;" points="259,-913 373,-913 "/>
<text text-anchor="start" x="267" y="-895.9" style="font-family:Times New Roman;font-size:14.00;">&lt; t_symbols&gt;</text>
</g>
<!-- c_symbols_table&#45;&gt;stack_symbols -->
<g id="edge6" class="edge"><title>c_symbols_table&#45;&gt;stack_symbols</title>
<path style="fill:none;stroke:gray;" d="M316,-962C316,-953 316,-945 316,-938"/>
<polygon style="fill:gray;stroke:gray;" points="316,-962 320,-968 316,-974 312,-968 316,-962"/>
</g>
<!-- t_symbols -->
<g id="node6" class="node"><title>t_symbols</title>
<polygon style="fill:none;stroke:black;" points="223,-802 223,-852 409,-852 409,-802 223,-802"/>
<text text-anchor="middle" x="316" y="-834.9" style="font-family:Times New Roman;font-size:14.00;">t_symbols</text>
<polyline style="fill:none;stroke:black;" points="223,-827 409,-827 "/>
<text text-anchor="start" x="231" y="-809.9" style="font-family:Times New Roman;font-size:14.00;">&lt; std::string, c_symbol&gt;</text>
</g>
<!-- stack_symbols&#45;&gt;t_symbols -->
<g id="edge8" class="edge"><title>stack_symbols&#45;&gt;t_symbols</title>
<path style="fill:none;stroke:gray;" d="M316,-876C316,-868 316,-859 316,-852"/>
<polygon style="fill:gray;stroke:gray;" points="316,-876 320,-882 316,-888 312,-882 316,-876"/>
</g>
<!-- t_symbols&#45;&gt;c_symbol -->
<g id="edge10" class="edge"><title>t_symbols&#45;&gt;c_symbol</title>
<path style="fill:none;stroke:gray;" d="M316,-790C316,-783 316,-775 316,-766"/>
<polygon style="fill:gray;stroke:gray;" points="316,-790 320,-796 316,-802 312,-796 316,-790"/>
</g>
</g>
</svg>
