<?xml version="1.0" encoding="UTF-8" standalone="no"?>
<!DOCTYPE svg PUBLIC "-//W3C//DTD SVG 1.0//EN"
 "http://www.w3.org/TR/2001/REC-SVG-20010904/DTD/svg10.dtd" [
 <!ATTLIST svg xmlns:xlink CDATA #FIXED "http://www.w3.org/1999/xlink">
]>
<!-- Generated by Graphviz version 2.20.2 (Tue Mar &#160;2 19:03:41 UTC 2010)
     For user: (hevia) hevia,,, -->
<!-- Title: G Pages: 1 -->
<svg width="360pt" height="110pt"
 viewBox="0.00 0.00 360.00 109.69" xmlns="http://www.w3.org/2000/svg" xmlns:xlink="http://www.w3.org/1999/xlink">
<g id="graph0" class="graph" transform="scale(0.703125 0.703125) rotate(0) translate(4 152)">
<title>G</title>
<polygon style="fill:white;stroke:white;" points="-4,4 -4,-152 508,-152 508,4 -4,4"/>
<!-- _1_S -->
<g id="node1" class="node"><title>_1_S</title>
<ellipse style="fill:none;stroke:black;" cx="226" cy="-130" rx="27" ry="18"/>
<text text-anchor="middle" x="226" y="-125.9" style="font-family:Times New Roman;font-size:14.00;">S</text>
</g>
<!-- _2_VARIABLE -->
<g id="node2" class="node"><title>_2_VARIABLE</title>
<polygon style="fill:none;stroke:green;" points="0,-0 0,-75 192,-75 192,-0 0,-0"/>
<text text-anchor="middle" x="96" y="-57.9" style="font-family:Times New Roman;font-size:14.00;">_2_VARIABLE</text>
<polyline style="fill:none;stroke:green;" points="0,-50 192,-50 "/>
<text text-anchor="start" x="8" y="-32.9" style="font-family:Times New Roman;font-size:14.00;">int is INT f is IDENTIFIER </text>
<polyline style="fill:none;stroke:green;" points="0,-25 192,-25 "/>
<text text-anchor="middle" x="96" y="-7.9" style="font-family:Times New Roman;font-size:14.00;">( is_not ; </text>
</g>
<!-- _1_S&#45;&gt;_2_VARIABLE -->
<g id="edge2" class="edge"><title>_1_S&#45;&gt;_2_VARIABLE</title>
<path style="fill:none;stroke:black;" d="M207,-117C194,-107 175,-94 156,-81"/>
<polygon style="fill:black;stroke:black;" points="158.1,-78.2 148,-75 153.9,-83.8 158.1,-78.2"/>
</g>
<!-- _3_FUNCTION -->
<g id="node3" class="node"><title>_3_FUNCTION</title>
<polygon style="fill:none;stroke:green;" points="210,-13 210,-63 504,-63 504,-13 210,-13"/>
<text text-anchor="middle" x="357" y="-45.9" style="font-family:Times New Roman;font-size:14.00;">_3_FUNCTION</text>
<polyline style="fill:none;stroke:green;" points="210,-38 504,-38 "/>
<text text-anchor="start" x="218" y="-20.9" style="font-family:Times New Roman;font-size:14.00;">int is INT f is IDENTIFIER ( is ( ) is ) ; is ; </text>
</g>
<!-- _1_S&#45;&gt;_3_FUNCTION -->
<g id="edge4" class="edge"><title>_1_S&#45;&gt;_3_FUNCTION</title>
<path style="fill:none;stroke:black;" d="M245,-117C263,-105 290,-85 313,-69"/>
<polygon style="fill:black;stroke:black;" points="315.1,-71.8 321,-63 310.9,-66.2 315.1,-71.8"/>
</g>
</g>
</svg>
