<?xml version="1.0" encoding="UTF-8" standalone="no"?>
<!DOCTYPE svg PUBLIC "-//W3C//DTD SVG 1.0//EN"
 "http://www.w3.org/TR/2001/REC-SVG-20010904/DTD/svg10.dtd" [
 <!ATTLIST svg xmlns:xlink CDATA #FIXED "http://www.w3.org/1999/xlink">
]>
<!-- Generated by Graphviz version 2.20.2 (Tue Mar &#160;2 19:03:41 UTC 2010)
     For user: (hevia) hevia,,, -->
<!-- Title: stack_01 Pages: 1 -->
<svg width="432pt" height="48pt"
 viewBox="0.00 0.00 432.00 48.06" xmlns="http://www.w3.org/2000/svg" xmlns:xlink="http://www.w3.org/1999/xlink">
<g id="graph0" class="graph" transform="scale(0.55243 0.55243) rotate(0) translate(4 83)">
<title>stack_01</title>
<polygon style="fill:white;stroke:white;" points="-4,4 -4,-83 778,-83 778,4 -4,4"/>
<!-- s1 -->
<g id="node1" class="node"><title>s1</title>
<polygon style="fill:none;stroke:black;" points="1,-43 1,-79 58,-79 58,-43 1,-43"/>
<text text-anchor="middle" x="29" y="-62.4" style="font-family:Times New Roman;font-size:14.00;">f1.cpp</text>
</g>
<!-- s2 -->
<g id="node2" class="node"><title>s2</title>
<polygon style="fill:none;stroke:black;" points="199,-24 199,-74 256,-74 256,-24 199,-24"/>
<text text-anchor="middle" x="227" y="-56.9" style="font-family:Times New Roman;font-size:14.00;">f2.h</text>
<polyline style="fill:none;stroke:black;" points="199,-49 256,-49 "/>
<text text-anchor="middle" x="227" y="-31.9" style="font-family:Times New Roman;font-size:14.00;">f1.cpp</text>
</g>
<!-- s1&#45;&gt;s2 -->
<g id="edge2" class="edge"><title>s1&#45;&gt;s2</title>
<path style="fill:none;stroke:black;" d="M58,-61C93,-61 151,-61 189,-61"/>
<polygon style="fill:black;stroke:black;" points="189,-64.5001 199,-61 189,-57.5001 189,-64.5001"/>
<text text-anchor="middle" x="128" y="-64.9" style="font-family:Times New Roman;font-size:14.00;">#include &quot;f2.h&quot;</text>
</g>
<!-- s3 -->
<g id="node3" class="node"><title>s3</title>
<polygon style="fill:none;stroke:black;" points="397,1 397,-74 454,-74 454,1 397,1"/>
<text text-anchor="middle" x="425" y="-56.9" style="font-family:Times New Roman;font-size:14.00;">f3.h</text>
<polyline style="fill:none;stroke:black;" points="397,-49 454,-49 "/>
<text text-anchor="middle" x="425" y="-31.9" style="font-family:Times New Roman;font-size:14.00;">f2.h</text>
<polyline style="fill:none;stroke:black;" points="397,-24 454,-24 "/>
<text text-anchor="middle" x="425" y="-6.9" style="font-family:Times New Roman;font-size:14.00;">f1.cpp</text>
</g>
<!-- s2&#45;&gt;s3 -->
<g id="edge4" class="edge"><title>s2&#45;&gt;s3</title>
<path style="fill:none;stroke:black;" d="M256,-61C291,-61 349,-61 387,-61"/>
<polygon style="fill:black;stroke:black;" points="387,-64.5001 397,-61 387,-57.5001 387,-64.5001"/>
<text text-anchor="middle" x="326" y="-64.9" style="font-family:Times New Roman;font-size:14.00;">#include &quot;f3.h&quot;</text>
</g>
<!-- s4 -->
<g id="node4" class="node"><title>s4</title>
<polygon style="fill:none;stroke:black;" points="557,-24 557,-74 614,-74 614,-24 557,-24"/>
<text text-anchor="middle" x="585" y="-56.9" style="font-family:Times New Roman;font-size:14.00;">f2.h</text>
<polyline style="fill:none;stroke:black;" points="557,-49 614,-49 "/>
<text text-anchor="middle" x="585" y="-31.9" style="font-family:Times New Roman;font-size:14.00;">f1.cpp</text>
</g>
<!-- s3&#45;&gt;s4 -->
<g id="edge6" class="edge"><title>s3&#45;&gt;s4</title>
<path style="fill:none;stroke:black;" d="M454,-61C481,-61 519,-61 547,-61"/>
<polygon style="fill:black;stroke:black;" points="547,-64.5001 557,-61 547,-57.5001 547,-64.5001"/>
<text text-anchor="middle" x="505" y="-64.9" style="font-family:Times New Roman;font-size:14.00;">eof &quot;f3.h&quot;</text>
</g>
<!-- s5 -->
<g id="node5" class="node"><title>s5</title>
<polygon style="fill:none;stroke:black;" points="717,-43 717,-79 774,-79 774,-43 717,-43"/>
<text text-anchor="middle" x="745" y="-62.4" style="font-family:Times New Roman;font-size:14.00;">f1.cpp</text>
</g>
<!-- s4&#45;&gt;s5 -->
<g id="edge8" class="edge"><title>s4&#45;&gt;s5</title>
<path style="fill:none;stroke:black;" d="M614,-61C641,-61 679,-61 707,-61"/>
<polygon style="fill:black;stroke:black;" points="707,-64.5001 717,-61 707,-57.5001 707,-64.5001"/>
<text text-anchor="middle" x="665" y="-64.9" style="font-family:Times New Roman;font-size:14.00;">eof &quot;f2.h&quot;</text>
</g>
</g>
</svg>
