<?xml version="1.0" encoding="UTF-8" standalone="no"?>
<!DOCTYPE svg PUBLIC "-//W3C//DTD SVG 1.0//EN"
 "http://www.w3.org/TR/2001/REC-SVG-20010904/DTD/svg10.dtd" [
 <!ATTLIST svg xmlns:xlink CDATA #FIXED "http://www.w3.org/1999/xlink">
]>
<!-- Generated by Graphviz version 2.20.2 (Tue Mar &#160;2 19:03:41 UTC 2010)
     For user: (hevia) hevia,,, -->
<!-- Title: stack_01 Pages: 1 -->
<svg width="144pt" height="173pt"
 viewBox="0.00 0.00 144.00 173.00" xmlns="http://www.w3.org/2000/svg" xmlns:xlink="http://www.w3.org/1999/xlink">
<g id="graph0" class="graph" transform="scale(0.491468 0.491468) rotate(0) translate(4 348)">
<title>stack_01</title>
<polygon style="fill:white;stroke:white;" points="-4,4 -4,-348 289,-348 289,4 -4,4"/>
<!-- ts -->
<g id="node1" class="node"><title>ts</title>
<polygon style="fill:none;stroke:black;" points="0,-294 0,-344 135,-344 135,-294 0,-294"/>
<text text-anchor="middle" x="67" y="-326.9" style="font-family:Times New Roman;font-size:14.00;">ts: symbols_table</text>
<polyline style="fill:none;stroke:black;" points="0,-319 135,-319 "/>
<text text-anchor="middle" x="67" y="-301.9" style="font-family:Times New Roman;font-size:14.00;">stack =</text>
</g>
<!-- stack_value -->
<g id="node2" class="node"><title>stack_value</title>
<polygon style="fill:none;stroke:black;" points="36,-180 36,-255 98,-255 98,-180 36,-180"/>
<text text-anchor="middle" x="67" y="-237.9" style="font-family:Times New Roman;font-size:14.00;">...</text>
<polyline style="fill:none;stroke:black;" points="36,-230 98,-230 "/>
<text text-anchor="middle" x="67" y="-212.9" style="font-family:Times New Roman;font-size:14.00;">level 1</text>
<polyline style="fill:none;stroke:black;" points="36,-205 98,-205 "/>
<text text-anchor="middle" x="67" y="-187.9" style="font-family:Times New Roman;font-size:14.00;">level 0</text>
</g>
<!-- ts&#45;&gt;stack_value -->
<g id="edge2" class="edge"><title>ts&#45;&gt;stack_value</title>
<path style="fill:none;stroke:gray;" d="M67,-282C67,-274 67,-264 67,-255"/>
<polygon style="fill:gray;stroke:gray;" points="67.0001,-282 71,-288 67,-294 63,-288 67.0001,-282"/>
</g>
<!-- t_symbols -->
<g id="node3" class="node"><title>t_symbols</title>
<polygon style="fill:none;stroke:black;" points="4,-90 4,-126 131,-126 131,-90 4,-90"/>
<text text-anchor="middle" x="52" y="-109.4" style="font-family:Times New Roman;font-size:14.00;">A: c_symbol</text>
<polyline style="fill:none;stroke:black;" points="101,-90 101,-126 "/>
<text text-anchor="middle" x="116" y="-109.4" style="font-family:Times New Roman;font-size:14.00;">...</text>
</g>
<!-- stack_value&#45;&gt;t_symbols -->
<g id="edge4" class="edge"><title>stack_value&#45;&gt;t_symbols</title>
<path style="fill:none;stroke:gray;" d="M67,-168C67,-154 67,-138 67,-126"/>
<polygon style="fill:gray;stroke:gray;" points="67.0001,-168 71,-174 67,-180 63,-174 67.0001,-168"/>
<text text-anchor="middle" x="176" y="-148.9" style="font-family:Times New Roman;font-size:14.00;">t_symbols&lt;vector&gt;&#45;&gt;&lt;map&gt;=</text>
</g>
<!-- A -->
<g id="node4" class="node"><title>A</title>
<polygon style="fill:none;stroke:black;" points="34,-0 34,-36 100,-36 100,-0 34,-0"/>
<text text-anchor="middle" x="50" y="-19.4" style="font-family:Times New Roman;font-size:14.00;">a1</text>
<polyline style="fill:none;stroke:black;" points="67,-0 67,-36 "/>
<text text-anchor="middle" x="83" y="-19.4" style="font-family:Times New Roman;font-size:14.00;">a2</text>
</g>
<!-- t_symbols&#45;&gt;A -->
<g id="edge6" class="edge"><title>t_symbols&#45;&gt;A</title>
<path style="fill:none;stroke:gray;" d="M67,-78C67,-64 67,-48 67,-36"/>
<polygon style="fill:gray;stroke:gray;" points="67.0001,-78 71,-84 67,-90 63,-84 67.0001,-78"/>
<text text-anchor="middle" x="104" y="-58.9" style="font-family:Times New Roman;font-size:14.00;">members=</text>
</g>
</g>
</svg>
