<?xml version="1.0" encoding="UTF-8" standalone="no"?>
<!DOCTYPE svg PUBLIC "-//W3C//DTD SVG 1.0//EN"
 "http://www.w3.org/TR/2001/REC-SVG-20010904/DTD/svg10.dtd" [
 <!ATTLIST svg xmlns:xlink CDATA #FIXED "http://www.w3.org/1999/xlink">
]>
<!-- Generated by Graphviz version 2.20.2 (Tue Mar &#160;2 19:03:41 UTC 2010)
     For user: (hevia) hevia,,, -->
<!-- Title: G Pages: 1 -->
<svg width="1752pt" height="1216pt"
 viewBox="0.00 0.00 1752.00 1216.00" xmlns="http://www.w3.org/2000/svg" xmlns:xlink="http://www.w3.org/1999/xlink">
<g id="graph0" class="graph" transform="scale(1 1) rotate(0) translate(4 1212)">
<title>G</title>
<polygon style="fill:white;stroke:white;" points="-4,4 -4,-1212 1748,-1212 1748,4 -4,4"/>
<!-- ROOT -->
<g id="node1" class="node"><title>ROOT</title>
<ellipse style="fill:none;stroke:black;" cx="997" cy="-1190" rx="39.1069" ry="18"/>
<text text-anchor="middle" x="997" y="-1185.9" style="font-family:Times New Roman;font-size:14.00;">ROOT</text>
</g>
<!-- _2_declaration_seq_opt -->
<g id="node2" class="node"><title>_2_declaration_seq_opt</title>
<ellipse style="fill:none;stroke:black;" cx="997" cy="-1118" rx="122.994" ry="18"/>
<text text-anchor="middle" x="997" y="-1113.9" style="font-family:Times New Roman;font-size:14.00;">_2_declaration_seq_opt</text>
</g>
<!-- ROOT&#45;&gt;_2_declaration_seq_opt -->
<g id="edge2" class="edge"><title>ROOT&#45;&gt;_2_declaration_seq_opt</title>
<path style="fill:none;stroke:black;" d="M997,-1172C997,-1164 997,-1155 997,-1146"/>
<polygon style="fill:black;stroke:black;" points="1000.5,-1146 997,-1136 993.5,-1146 1000.5,-1146"/>
</g>
<!-- _3_declaration_seq -->
<g id="node3" class="node"><title>_3_declaration_seq</title>
<ellipse style="fill:none;stroke:black;" cx="997" cy="-1046" rx="102.148" ry="18"/>
<text text-anchor="middle" x="997" y="-1041.9" style="font-family:Times New Roman;font-size:14.00;">_3_declaration_seq</text>
</g>
<!-- _2_declaration_seq_opt&#45;&gt;_3_declaration_seq -->
<g id="edge4" class="edge"><title>_2_declaration_seq_opt&#45;&gt;_3_declaration_seq</title>
<path style="fill:none;stroke:black;" d="M997,-1100C997,-1092 997,-1083 997,-1074"/>
<polygon style="fill:black;stroke:black;" points="1000.5,-1074 997,-1064 993.5,-1074 1000.5,-1074"/>
</g>
<!-- _4_declaration -->
<g id="node4" class="node"><title>_4_declaration</title>
<ellipse style="fill:none;stroke:black;" cx="793" cy="-974" rx="80.8024" ry="18"/>
<text text-anchor="middle" x="793" y="-969.9" style="font-family:Times New Roman;font-size:14.00;">_4_declaration</text>
</g>
<!-- _3_declaration_seq&#45;&gt;_4_declaration -->
<g id="edge6" class="edge"><title>_3_declaration_seq&#45;&gt;_4_declaration</title>
<path style="fill:none;stroke:black;" d="M951,-1030C920,-1019 878,-1004 845,-992"/>
<polygon style="fill:black;stroke:black;" points="846.594,-988.842 836,-989 844.38,-995.483 846.594,-988.842"/>
</g>
<!-- _45_declaration -->
<g id="node45" class="node"><title>_45_declaration</title>
<ellipse style="fill:none;stroke:black;" cx="1202" cy="-974" rx="87.0549" ry="18"/>
<text text-anchor="middle" x="1202" y="-969.9" style="font-family:Times New Roman;font-size:14.00;">_45_declaration</text>
</g>
<!-- _3_declaration_seq&#45;&gt;_45_declaration -->
<g id="edge88" class="edge"><title>_3_declaration_seq&#45;&gt;_45_declaration</title>
<path style="fill:none;stroke:black;" d="M1043,-1030C1074,-1019 1116,-1005 1149,-993"/>
<polygon style="fill:black;stroke:black;" points="1149.62,-996.483 1158,-990 1147.41,-989.842 1149.62,-996.483"/>
</g>
<!-- _5_is_eof -->
<g id="node5" class="node"><title>_5_is_eof</title>
<polygon style="fill:none;stroke:black;stroke-dasharray:1,5;" points="310,-870 310,-920 424,-920 424,-870 310,-870"/>
<text text-anchor="middle" x="367" y="-902.9" style="font-family:Times New Roman;font-size:14.00;">_5_is_eof</text>
<polyline style="fill:none;stroke:black;stroke-dasharray:1,5;" points="310,-895 424,-895 "/>
<text text-anchor="middle" x="367" y="-877.9" style="font-family:Times New Roman;font-size:14.00;">int is_not EOF</text>
</g>
<!-- _4_declaration&#45;&gt;_5_is_eof -->
<g id="edge8" class="edge"><title>_4_declaration&#45;&gt;_5_is_eof</title>
<path style="fill:none;stroke:black;" d="M718,-967C646,-959 537,-946 434,-920"/>
<polygon style="fill:black;stroke:black;" points="434.584,-916.521 424,-917 432.573,-923.226 434.584,-916.521"/>
</g>
<!-- _6_extern_c -->
<g id="node6" class="node"><title>_6_extern_c</title>
<polygon style="fill:none;stroke:black;stroke-dasharray:1,5;" points="442,-870 442,-920 585,-920 585,-870 442,-870"/>
<text text-anchor="middle" x="513" y="-902.9" style="font-family:Times New Roman;font-size:14.00;">_6_extern_c</text>
<polyline style="fill:none;stroke:black;stroke-dasharray:1,5;" points="442,-895 585,-895 "/>
<text text-anchor="middle" x="513" y="-877.9" style="font-family:Times New Roman;font-size:14.00;">int is_not EXTERN</text>
</g>
<!-- _4_declaration&#45;&gt;_6_extern_c -->
<g id="edge10" class="edge"><title>_4_declaration&#45;&gt;_6_extern_c</title>
<path style="fill:none;stroke:black;" d="M741,-960C702,-950 649,-936 595,-921"/>
<polygon style="fill:black;stroke:black;" points="595.584,-917.521 585,-918 593.573,-924.226 595.584,-917.521"/>
</g>
<!-- _7_preprocessor -->
<g id="node7" class="node"><title>_7_preprocessor</title>
<ellipse style="fill:none;stroke:black;" cx="691" cy="-895" rx="88.9449" ry="18"/>
<text text-anchor="middle" x="691" y="-890.9" style="font-family:Times New Roman;font-size:14.00;">_7_preprocessor</text>
</g>
<!-- _4_declaration&#45;&gt;_7_preprocessor -->
<g id="edge12" class="edge"><title>_4_declaration&#45;&gt;_7_preprocessor</title>
<path style="fill:none;stroke:black;" d="M771,-957C757,-946 738,-931 722,-918"/>
<polygon style="fill:black;stroke:black;" points="724.1,-915.2 714,-912 719.9,-920.8 724.1,-915.2"/>
</g>
<!-- _13_template_declaration -->
<g id="node13" class="node"><title>_13_template_declaration</title>
<polygon style="fill:none;stroke:black;stroke-dasharray:1,5;" points="798,-870 798,-920 993,-920 993,-870 798,-870"/>
<text text-anchor="middle" x="895" y="-902.9" style="font-family:Times New Roman;font-size:14.00;">_13_template_declaration</text>
<polyline style="fill:none;stroke:black;stroke-dasharray:1,5;" points="798,-895 993,-895 "/>
<text text-anchor="middle" x="895" y="-877.9" style="font-family:Times New Roman;font-size:14.00;">int is_not TEMPLATE</text>
</g>
<!-- _4_declaration&#45;&gt;_13_template_declaration -->
<g id="edge24" class="edge"><title>_4_declaration&#45;&gt;_13_template_declaration</title>
<path style="fill:none;stroke:black;" d="M815,-957C827,-948 841,-937 854,-926"/>
<polygon style="fill:black;stroke:black;" points="856.1,-928.8 862,-920 851.9,-923.2 856.1,-928.8"/>
</g>
<!-- _14_block_declaration -->
<g id="node14" class="node"><title>_14_block_declaration</title>
<ellipse style="fill:none;stroke:black;" cx="1126" cy="-895" rx="116.239" ry="18"/>
<text text-anchor="middle" x="1126" y="-890.9" style="font-family:Times New Roman;font-size:14.00;">_14_block_declaration</text>
</g>
<!-- _4_declaration&#45;&gt;_14_block_declaration -->
<g id="edge26" class="edge"><title>_4_declaration&#45;&gt;_14_block_declaration</title>
<path style="fill:none;stroke:black;" d="M849,-961C905,-948 991,-927 1052,-912"/>
<polygon style="fill:black;stroke:black;" points="1052.88,-915.393 1062,-910 1051.51,-908.529 1052.88,-915.393"/>
</g>
<!-- _8_preprocessor_define -->
<g id="node8" class="node"><title>_8_preprocessor_define</title>
<polygon style="fill:none;stroke:black;stroke-dasharray:1,5;" points="105,-784 105,-834 282,-834 282,-784 105,-784"/>
<text text-anchor="middle" x="193" y="-816.9" style="font-family:Times New Roman;font-size:14.00;">_8_preprocessor_define</text>
<polyline style="fill:none;stroke:black;stroke-dasharray:1,5;" points="105,-809 282,-809 "/>
<text text-anchor="middle" x="193" y="-791.9" style="font-family:Times New Roman;font-size:14.00;">int is_not #</text>
</g>
<!-- _7_preprocessor&#45;&gt;_8_preprocessor_define -->
<g id="edge14" class="edge"><title>_7_preprocessor&#45;&gt;_8_preprocessor_define</title>
<path style="fill:none;stroke:black;" d="M639,-880C625,-876 608,-873 593,-870 463,-846 426,-857 292,-834"/>
<polygon style="fill:black;stroke:black;" points="292.492,-830.529 282,-832 291.119,-837.393 292.492,-830.529"/>
</g>
<!-- _9_preprocessor_include -->
<g id="node9" class="node"><title>_9_preprocessor_include</title>
<polygon style="fill:none;stroke:black;stroke-dasharray:1,5;" points="299,-784 299,-834 483,-834 483,-784 299,-784"/>
<text text-anchor="middle" x="391" y="-816.9" style="font-family:Times New Roman;font-size:14.00;">_9_preprocessor_include</text>
<polyline style="fill:none;stroke:black;stroke-dasharray:1,5;" points="299,-809 483,-809 "/>
<text text-anchor="middle" x="391" y="-791.9" style="font-family:Times New Roman;font-size:14.00;">int is_not #</text>
</g>
<!-- _7_preprocessor&#45;&gt;_9_preprocessor_include -->
<g id="edge16" class="edge"><title>_7_preprocessor&#45;&gt;_9_preprocessor_include</title>
<path style="fill:none;stroke:black;" d="M639,-880C598,-869 538,-851 488,-837"/>
<polygon style="fill:black;stroke:black;" points="488.584,-833.521 478,-834 486.573,-840.226 488.584,-833.521"/>
</g>
<!-- _10_preprocessor_ifndef -->
<g id="node10" class="node"><title>_10_preprocessor_ifndef</title>
<polygon style="fill:none;stroke:black;stroke-dasharray:1,5;" points="501,-784 501,-834 684,-834 684,-784 501,-784"/>
<text text-anchor="middle" x="592" y="-816.9" style="font-family:Times New Roman;font-size:14.00;">_10_preprocessor_ifndef</text>
<polyline style="fill:none;stroke:black;stroke-dasharray:1,5;" points="501,-809 684,-809 "/>
<text text-anchor="middle" x="592" y="-791.9" style="font-family:Times New Roman;font-size:14.00;">int is_not #</text>
</g>
<!-- _7_preprocessor&#45;&gt;_10_preprocessor_ifndef -->
<g id="edge18" class="edge"><title>_7_preprocessor&#45;&gt;_10_preprocessor_ifndef</title>
<path style="fill:none;stroke:black;" d="M670,-877C658,-867 643,-853 629,-841"/>
<polygon style="fill:black;stroke:black;" points="630.831,-837.951 621,-834 626.221,-843.219 630.831,-837.951"/>
</g>
<!-- _11_preprocessor_endif -->
<g id="node11" class="node"><title>_11_preprocessor_endif</title>
<polygon style="fill:none;stroke:black;stroke-dasharray:1,5;" points="701,-784 701,-834 879,-834 879,-784 701,-784"/>
<text text-anchor="middle" x="790" y="-816.9" style="font-family:Times New Roman;font-size:14.00;">_11_preprocessor_endif</text>
<polyline style="fill:none;stroke:black;stroke-dasharray:1,5;" points="701,-809 879,-809 "/>
<text text-anchor="middle" x="790" y="-791.9" style="font-family:Times New Roman;font-size:14.00;">int is_not #</text>
</g>
<!-- _7_preprocessor&#45;&gt;_11_preprocessor_endif -->
<g id="edge20" class="edge"><title>_7_preprocessor&#45;&gt;_11_preprocessor_endif</title>
<path style="fill:none;stroke:black;" d="M712,-877C724,-867 739,-853 753,-841"/>
<polygon style="fill:black;stroke:black;" points="755.779,-843.219 761,-834 751.169,-837.951 755.779,-843.219"/>
</g>
<!-- _12_preprocessor_other_dummy -->
<g id="node12" class="node"><title>_12_preprocessor_other_dummy</title>
<polygon style="fill:none;stroke:black;stroke-dasharray:1,5;" points="897,-784 897,-834 1137,-834 1137,-784 897,-784"/>
<text text-anchor="middle" x="1017" y="-816.9" style="font-family:Times New Roman;font-size:14.00;">_12_preprocessor_other_dummy</text>
<polyline style="fill:none;stroke:black;stroke-dasharray:1,5;" points="897,-809 1137,-809 "/>
<text text-anchor="middle" x="1017" y="-791.9" style="font-family:Times New Roman;font-size:14.00;">int is_not #</text>
</g>
<!-- _7_preprocessor&#45;&gt;_12_preprocessor_other_dummy -->
<g id="edge22" class="edge"><title>_7_preprocessor&#45;&gt;_12_preprocessor_other_dummy</title>
<path style="fill:none;stroke:black;" d="M745,-881C790,-869 856,-851 912,-837"/>
<polygon style="fill:black;stroke:black;" points="913.427,-840.226 922,-834 911.416,-833.521 913.427,-840.226"/>
</g>
<!-- _15_simple_declaration -->
<g id="node15" class="node"><title>_15_simple_declaration</title>
<polygon style="fill:none;stroke:green;" points="1155,-784 1155,-834 1332,-834 1332,-784 1155,-784"/>
<text text-anchor="middle" x="1243" y="-816.9" style="font-family:Times New Roman;font-size:14.00;">_15_simple_declaration</text>
<polyline style="fill:none;stroke:green;" points="1155,-809 1332,-809 "/>
<text text-anchor="start" x="1162.5" y="-791.9" style="font-family:Times New Roman;font-size:14.00;">; is ; </text>
</g>
<!-- _14_block_declaration&#45;&gt;_15_simple_declaration -->
<g id="edge28" class="edge"><title>_14_block_declaration&#45;&gt;_15_simple_declaration</title>
<path style="fill:none;stroke:black;" d="M1150,-877C1165,-867 1184,-853 1201,-840"/>
<polygon style="fill:black;stroke:black;" points="1203.1,-842.8 1209,-834 1198.9,-837.2 1203.1,-842.8"/>
</g>
<!-- _16_decl_specifier_seq_opt -->
<g id="node16" class="node"><title>_16_decl_specifier_seq_opt</title>
<ellipse style="fill:none;stroke:black;" cx="1071" cy="-730" rx="139.171" ry="18"/>
<text text-anchor="middle" x="1071" y="-725.9" style="font-family:Times New Roman;font-size:14.00;">_16_decl_specifier_seq_opt</text>
</g>
<!-- _15_simple_declaration&#45;&gt;_16_decl_specifier_seq_opt -->
<g id="edge30" class="edge"><title>_15_simple_declaration&#45;&gt;_16_decl_specifier_seq_opt</title>
<path style="fill:none;stroke:black;" d="M1188,-784C1165,-774 1140,-762 1118,-751"/>
<polygon style="fill:black;stroke:black;" points="1119.56,-747.863 1109,-747 1116.72,-754.26 1119.56,-747.863"/>
</g>
<!-- _32_init_declarator_list_opt -->
<g id="node32" class="node"><title>_32_init_declarator_list_opt</title>
<ellipse style="fill:none;stroke:black;" cx="1393" cy="-730" rx="143.841" ry="18"/>
<text text-anchor="middle" x="1393" y="-725.9" style="font-family:Times New Roman;font-size:14.00;">_32_init_declarator_list_opt</text>
</g>
<!-- _15_simple_declaration&#45;&gt;_32_init_declarator_list_opt -->
<g id="edge62" class="edge"><title>_15_simple_declaration&#45;&gt;_32_init_declarator_list_opt</title>
<path style="fill:none;stroke:black;" d="M1291,-784C1311,-774 1333,-762 1351,-753"/>
<polygon style="fill:black;stroke:black;" points="1352.96,-755.916 1360,-748 1349.56,-749.797 1352.96,-755.916"/>
</g>
<!-- _17_decl_specifier_seq -->
<g id="node17" class="node"><title>_17_decl_specifier_seq</title>
<ellipse style="fill:none;stroke:black;" cx="1060" cy="-651" rx="118.825" ry="18"/>
<text text-anchor="middle" x="1060" y="-646.9" style="font-family:Times New Roman;font-size:14.00;">_17_decl_specifier_seq</text>
</g>
<!-- _16_decl_specifier_seq_opt&#45;&gt;_17_decl_specifier_seq -->
<g id="edge32" class="edge"><title>_16_decl_specifier_seq_opt&#45;&gt;_17_decl_specifier_seq</title>
<path style="fill:none;stroke:black;" d="M1068,-712C1066,-702 1065,-690 1063,-679"/>
<polygon style="fill:black;stroke:black;" points="1066.48,-678.602 1062,-669 1059.51,-679.299 1066.48,-678.602"/>
</g>
<!-- _18_decl_specifier -->
<g id="node18" class="node"><title>_18_decl_specifier</title>
<ellipse style="fill:none;stroke:black;" cx="692" cy="-572" rx="96.7846" ry="18"/>
<text text-anchor="middle" x="692" y="-567.9" style="font-family:Times New Roman;font-size:14.00;">_18_decl_specifier</text>
</g>
<!-- _17_decl_specifier_seq&#45;&gt;_18_decl_specifier -->
<g id="edge34" class="edge"><title>_17_decl_specifier_seq&#45;&gt;_18_decl_specifier</title>
<path style="fill:none;stroke:black;" d="M991,-636C927,-622 832,-602 766,-588"/>
<polygon style="fill:black;stroke:black;" points="766.492,-584.529 756,-586 765.119,-591.393 766.492,-584.529"/>
</g>
<!-- _30_decl_specifier -->
<g id="node30" class="node"><title>_30_decl_specifier</title>
<ellipse style="fill:none;stroke:black;" cx="1060" cy="-572" rx="96.7846" ry="18"/>
<text text-anchor="middle" x="1060" y="-567.9" style="font-family:Times New Roman;font-size:14.00;">_30_decl_specifier</text>
</g>
<!-- _17_decl_specifier_seq&#45;&gt;_30_decl_specifier -->
<g id="edge58" class="edge"><title>_17_decl_specifier_seq&#45;&gt;_30_decl_specifier</title>
<path style="fill:none;stroke:black;" d="M1060,-633C1060,-623 1060,-611 1060,-600"/>
<polygon style="fill:black;stroke:black;" points="1063.5,-600 1060,-590 1056.5,-600 1063.5,-600"/>
</g>
<!-- _19_preanalisys -->
<g id="node19" class="node"><title>_19_preanalisys</title>
<polygon style="fill:none;stroke:black;stroke-dasharray:1,5;" points="0,-455 0,-505 322,-505 322,-455 0,-455"/>
<text text-anchor="middle" x="161" y="-487.9" style="font-family:Times New Roman;font-size:14.00;">_19_preanalisys</text>
<polyline style="fill:none;stroke:black;stroke-dasharray:1,5;" points="0,-480 322,-480 "/>
<text text-anchor="middle" x="161" y="-462.9" style="font-family:Times New Roman;font-size:14.00;">int is_not ; ) COLONCOLON IDENTIFIER ~ #</text>
</g>
<!-- _18_decl_specifier&#45;&gt;_19_preanalisys -->
<g id="edge36" class="edge"><title>_18_decl_specifier&#45;&gt;_19_preanalisys</title>
<path style="fill:none;stroke:black;" d="M613,-562C539,-552 428,-536 331,-518 314,-515 297,-511 279,-507"/>
<polygon style="fill:black;stroke:black;" points="279.492,-503.529 269,-505 278.119,-510.393 279.492,-503.529"/>
</g>
<!-- _20_storage_class_specifier -->
<g id="node20" class="node"><title>_20_storage_class_specifier</title>
<polygon style="fill:none;stroke:black;stroke-dasharray:1,5;" points="340,-455 340,-505 730,-505 730,-455 340,-455"/>
<text text-anchor="middle" x="535" y="-487.9" style="font-family:Times New Roman;font-size:14.00;">_20_storage_class_specifier</text>
<polyline style="fill:none;stroke:black;stroke-dasharray:1,5;" points="340,-480 730,-480 "/>
<text text-anchor="middle" x="535" y="-462.9" style="font-family:Times New Roman;font-size:14.00;">int is_not AUTO REGISTER STATIC EXTERN MUTABLE</text>
</g>
<!-- _18_decl_specifier&#45;&gt;_20_storage_class_specifier -->
<g id="edge38" class="edge"><title>_18_decl_specifier&#45;&gt;_20_storage_class_specifier</title>
<path style="fill:none;stroke:black;" d="M662,-555C641,-542 612,-525 587,-510"/>
<polygon style="fill:black;stroke:black;" points="588.441,-506.797 578,-505 585.042,-512.916 588.441,-506.797"/>
</g>
<!-- _21_type_specifier -->
<g id="node21" class="node"><title>_21_type_specifier</title>
<ellipse style="fill:none;stroke:black;" cx="848" cy="-480" rx="100.063" ry="18"/>
<text text-anchor="middle" x="848" y="-475.9" style="font-family:Times New Roman;font-size:14.00;">_21_type_specifier</text>
</g>
<!-- _18_decl_specifier&#45;&gt;_21_type_specifier -->
<g id="edge40" class="edge"><title>_18_decl_specifier&#45;&gt;_21_type_specifier</title>
<path style="fill:none;stroke:black;" d="M721,-555C746,-540 783,-519 810,-502"/>
<polygon style="fill:black;stroke:black;" points="811.958,-504.916 819,-497 808.559,-498.797 811.958,-504.916"/>
</g>
<!-- _22_simple_type_specifier -->
<g id="node22" class="node"><title>_22_simple_type_specifier</title>
<polygon style="fill:none;stroke:green;" points="699,-330 699,-405 998,-405 998,-330 699,-330"/>
<text text-anchor="middle" x="848" y="-387.9" style="font-family:Times New Roman;font-size:14.00;">_22_simple_type_specifier</text>
<polyline style="fill:none;stroke:green;" points="699,-380 998,-380 "/>
<text text-anchor="start" x="706.5" y="-362.9" style="font-family:Times New Roman;font-size:14.00;">int is INT</text>
<polyline style="fill:none;stroke:green;" points="699,-355 998,-355 "/>
<text text-anchor="middle" x="848" y="-337.9" style="font-family:Times New Roman;font-size:14.00;">int is_not CHAR WCHAR_T BOOL SHORT</text>
</g>
<!-- _21_type_specifier&#45;&gt;_22_simple_type_specifier -->
<g id="edge42" class="edge"><title>_21_type_specifier&#45;&gt;_22_simple_type_specifier</title>
<path style="fill:none;stroke:black;" d="M848,-462C848,-450 848,-432 848,-415"/>
<polygon style="fill:black;stroke:black;" points="851.5,-415 848,-405 844.5,-415 851.5,-415"/>
</g>
<!-- _23_type_name -->
<g id="node23" class="node"><title>_23_type_name</title>
<ellipse style="fill:none;stroke:black;" cx="520" cy="-269" rx="87.0549" ry="18"/>
<text text-anchor="middle" x="520" y="-264.9" style="font-family:Times New Roman;font-size:14.00;">_23_type_name</text>
</g>
<!-- _22_simple_type_specifier&#45;&gt;_23_type_name -->
<g id="edge44" class="edge"><title>_22_simple_type_specifier&#45;&gt;_23_type_name</title>
<path style="fill:none;stroke:black;" d="M722,-330C672,-315 619,-299 579,-287"/>
<polygon style="fill:black;stroke:black;" points="579.584,-283.521 569,-284 577.573,-290.226 579.584,-283.521"/>
</g>
<!-- _27_nested_name_specifier -->
<g id="node27" class="node"><title>_27_nested_name_specifier</title>
<polygon style="fill:none;stroke:black;stroke-dasharray:1,5;" points="625,-244 625,-294 1072,-294 1072,-244 625,-244"/>
<text text-anchor="middle" x="848" y="-276.9" style="font-family:Times New Roman;font-size:14.00;">_27_nested_name_specifier</text>
<polyline style="fill:none;stroke:black;stroke-dasharray:1,5;" points="625,-269 1072,-269 "/>
<text text-anchor="middle" x="848" y="-251.9" style="font-family:Times New Roman;font-size:14.00;">int is_not CLASS_NAME NAMESPACE_NAME TEMPLATE_NAME</text>
</g>
<!-- _22_simple_type_specifier&#45;&gt;_27_nested_name_specifier -->
<g id="edge52" class="edge"><title>_22_simple_type_specifier&#45;&gt;_27_nested_name_specifier</title>
<path style="fill:none;stroke:black;" d="M848,-330C848,-322 848,-313 848,-304"/>
<polygon style="fill:black;stroke:black;" points="851.5,-304 848,-294 844.5,-304 851.5,-304"/>
</g>
<!-- _28_template_id -->
<g id="node28" class="node"><title>_28_template_id</title>
<ellipse style="fill:none;stroke:black;" cx="1179" cy="-269" rx="89.8356" ry="18"/>
<text text-anchor="middle" x="1179" y="-264.9" style="font-family:Times New Roman;font-size:14.00;">_28_template_id</text>
</g>
<!-- _22_simple_type_specifier&#45;&gt;_28_template_id -->
<g id="edge54" class="edge"><title>_22_simple_type_specifier&#45;&gt;_28_template_id</title>
<path style="fill:none;stroke:black;" d="M975,-330C1025,-315 1079,-299 1119,-287"/>
<polygon style="fill:black;stroke:black;" points="1120.43,-290.226 1129,-284 1118.42,-283.521 1120.43,-290.226"/>
</g>
<!-- _24_class_name -->
<g id="node24" class="node"><title>_24_class_name</title>
<polygon style="fill:none;stroke:black;stroke-dasharray:1,5;" points="211,-158 211,-208 391,-208 391,-158 211,-158"/>
<text text-anchor="middle" x="301" y="-190.9" style="font-family:Times New Roman;font-size:14.00;">_24_class_name</text>
<polyline style="fill:none;stroke:black;stroke-dasharray:1,5;" points="211,-183 391,-183 "/>
<text text-anchor="middle" x="301" y="-165.9" style="font-family:Times New Roman;font-size:14.00;">int is_not CLASS_NAME</text>
</g>
<!-- _23_type_name&#45;&gt;_24_class_name -->
<g id="edge46" class="edge"><title>_23_type_name&#45;&gt;_24_class_name</title>
<path style="fill:none;stroke:black;" d="M479,-253C450,-241 410,-226 375,-212"/>
<polygon style="fill:black;stroke:black;" points="375.585,-208.464 365,-208 372.985,-214.964 375.585,-208.464"/>
</g>
<!-- _25_enum_name -->
<g id="node25" class="node"><title>_25_enum_name</title>
<polygon style="fill:none;stroke:black;stroke-dasharray:1,5;" points="409,-158 409,-208 631,-208 631,-158 409,-158"/>
<text text-anchor="middle" x="520" y="-190.9" style="font-family:Times New Roman;font-size:14.00;">_25_enum_name</text>
<polyline style="fill:none;stroke:black;stroke-dasharray:1,5;" points="409,-183 631,-183 "/>
<text text-anchor="middle" x="520" y="-165.9" style="font-family:Times New Roman;font-size:14.00;">int is_not ENUM ENUM_NAME</text>
</g>
<!-- _23_type_name&#45;&gt;_25_enum_name -->
<g id="edge48" class="edge"><title>_23_type_name&#45;&gt;_25_enum_name</title>
<path style="fill:none;stroke:black;" d="M520,-251C520,-242 520,-230 520,-218"/>
<polygon style="fill:black;stroke:black;" points="523.5,-218 520,-208 516.5,-218 523.5,-218"/>
</g>
<!-- _26_typedef_name -->
<g id="node26" class="node"><title>_26_typedef_name</title>
<polygon style="fill:none;stroke:black;stroke-dasharray:1,5;" points="649,-158 649,-208 847,-208 847,-158 649,-158"/>
<text text-anchor="middle" x="748" y="-190.9" style="font-family:Times New Roman;font-size:14.00;">_26_typedef_name</text>
<polyline style="fill:none;stroke:black;stroke-dasharray:1,5;" points="649,-183 847,-183 "/>
<text text-anchor="middle" x="748" y="-165.9" style="font-family:Times New Roman;font-size:14.00;">int is_not TYPEDEF_NAME</text>
</g>
<!-- _23_type_name&#45;&gt;_26_typedef_name -->
<g id="edge50" class="edge"><title>_23_type_name&#45;&gt;_26_typedef_name</title>
<path style="fill:none;stroke:black;" d="M562,-253C592,-241 635,-226 671,-212"/>
<polygon style="fill:black;stroke:black;" points="673.015,-214.964 681,-208 670.415,-208.464 673.015,-214.964"/>
</g>
<!-- _29_template_name -->
<g id="node29" class="node"><title>_29_template_name</title>
<polygon style="fill:none;stroke:black;stroke-dasharray:1,5;" points="1075,-158 1075,-208 1283,-208 1283,-158 1075,-158"/>
<text text-anchor="middle" x="1179" y="-190.9" style="font-family:Times New Roman;font-size:14.00;">_29_template_name</text>
<polyline style="fill:none;stroke:black;stroke-dasharray:1,5;" points="1075,-183 1283,-183 "/>
<text text-anchor="middle" x="1179" y="-165.9" style="font-family:Times New Roman;font-size:14.00;">int is_not TEMPLATE_NAME</text>
</g>
<!-- _28_template_id&#45;&gt;_29_template_name -->
<g id="edge56" class="edge"><title>_28_template_id&#45;&gt;_29_template_name</title>
<path style="fill:none;stroke:black;" d="M1179,-251C1179,-242 1179,-230 1179,-218"/>
<polygon style="fill:black;stroke:black;" points="1182.5,-218 1179,-208 1175.5,-218 1182.5,-218"/>
</g>
<!-- _31_preanalisys -->
<g id="node31" class="node"><title>_31_preanalisys</title>
<polygon style="fill:none;stroke:green;" points="966,-442 966,-517 1155,-517 1155,-442 966,-442"/>
<text text-anchor="middle" x="1060" y="-499.9" style="font-family:Times New Roman;font-size:14.00;">_31_preanalisys</text>
<polyline style="fill:none;stroke:green;" points="966,-492 1155,-492 "/>
<text text-anchor="start" x="973.5" y="-474.9" style="font-family:Times New Roman;font-size:14.00;">i is IDENTIFIER</text>
<polyline style="fill:none;stroke:green;" points="966,-467 1155,-467 "/>
<text text-anchor="middle" x="1060" y="-449.9" style="font-family:Times New Roman;font-size:14.00;">i is_not ; ) COLONCOLON</text>
</g>
<!-- _30_decl_specifier&#45;&gt;_31_preanalisys -->
<g id="edge60" class="edge"><title>_30_decl_specifier&#45;&gt;_31_preanalisys</title>
<path style="fill:none;stroke:black;" d="M1060,-554C1060,-546 1060,-537 1060,-527"/>
<polygon style="fill:black;stroke:black;" points="1063.5,-527 1060,-517 1056.5,-527 1063.5,-527"/>
</g>
<!-- _33_init_declarator_list -->
<g id="node33" class="node"><title>_33_init_declarator_list</title>
<polygon style="fill:none;stroke:green;" points="1310,-626 1310,-676 1487,-676 1487,-626 1310,-626"/>
<text text-anchor="middle" x="1398" y="-658.9" style="font-family:Times New Roman;font-size:14.00;">_33_init_declarator_list</text>
<polyline style="fill:none;stroke:green;" points="1310,-651 1487,-651 "/>
<text text-anchor="start" x="1317.5" y="-633.9" style="font-family:Times New Roman;font-size:14.00;">; is ; </text>
</g>
<!-- _32_init_declarator_list_opt&#45;&gt;_33_init_declarator_list -->
<g id="edge64" class="edge"><title>_32_init_declarator_list_opt&#45;&gt;_33_init_declarator_list</title>
<path style="fill:none;stroke:black;" d="M1394,-712C1395,-704 1395,-695 1396,-686"/>
<polygon style="fill:black;stroke:black;" points="1399.49,-686.299 1397,-676 1392.52,-685.602 1399.49,-686.299"/>
</g>
<!-- _34_init_declarator -->
<g id="node34" class="node"><title>_34_init_declarator</title>
<ellipse style="fill:none;stroke:black;" cx="1401" cy="-572" rx="103.037" ry="18"/>
<text text-anchor="middle" x="1401" y="-567.9" style="font-family:Times New Roman;font-size:14.00;">_34_init_declarator</text>
</g>
<!-- _33_init_declarator_list&#45;&gt;_34_init_declarator -->
<g id="edge66" class="edge"><title>_33_init_declarator_list&#45;&gt;_34_init_declarator</title>
<path style="fill:none;stroke:black;" d="M1399,-626C1399,-618 1399,-609 1400,-600"/>
<polygon style="fill:black;stroke:black;" points="1403.5,-600 1400,-590 1396.5,-600 1403.5,-600"/>
</g>
<!-- _35_ptr_specifier -->
<g id="node35" class="node"><title>_35_ptr_specifier</title>
<polygon style="fill:none;stroke:black;stroke-dasharray:1,5;" points="1172,-455 1172,-505 1305,-505 1305,-455 1172,-455"/>
<text text-anchor="middle" x="1238" y="-487.9" style="font-family:Times New Roman;font-size:14.00;">_35_ptr_specifier</text>
<polyline style="fill:none;stroke:black;stroke-dasharray:1,5;" points="1172,-480 1305,-480 "/>
<text text-anchor="middle" x="1238" y="-462.9" style="font-family:Times New Roman;font-size:14.00;">i is_not * &amp;</text>
</g>
<!-- _34_init_declarator&#45;&gt;_35_ptr_specifier -->
<g id="edge68" class="edge"><title>_34_init_declarator&#45;&gt;_35_ptr_specifier</title>
<path style="fill:none;stroke:black;" d="M1370,-555C1348,-542 1317,-525 1291,-510"/>
<polygon style="fill:black;stroke:black;" points="1292.44,-506.797 1282,-505 1289.04,-512.916 1292.44,-506.797"/>
</g>
<!-- _36_declarator -->
<g id="node36" class="node"><title>_36_declarator</title>
<ellipse style="fill:none;stroke:black;" cx="1404" cy="-480" rx="82.1898" ry="18"/>
<text text-anchor="middle" x="1404" y="-475.9" style="font-family:Times New Roman;font-size:14.00;">_36_declarator</text>
</g>
<!-- _34_init_declarator&#45;&gt;_36_declarator -->
<g id="edge70" class="edge"><title>_34_init_declarator&#45;&gt;_36_declarator</title>
<path style="fill:none;stroke:black;" d="M1402,-554C1402,-541 1403,-523 1403,-508"/>
<polygon style="fill:black;stroke:black;" points="1406.5,-508 1403,-498 1399.5,-508 1406.5,-508"/>
</g>
<!-- _44_initializer_dummy -->
<g id="node44" class="node"><title>_44_initializer_dummy</title>
<polygon style="fill:none;stroke:black;stroke-dasharray:1,5;" points="1504,-455 1504,-505 1676,-505 1676,-455 1504,-455"/>
<text text-anchor="middle" x="1590" y="-487.9" style="font-family:Times New Roman;font-size:14.00;">_44_initializer_dummy</text>
<polyline style="fill:none;stroke:black;stroke-dasharray:1,5;" points="1504,-480 1676,-480 "/>
<text text-anchor="middle" x="1590" y="-462.9" style="font-family:Times New Roman;font-size:14.00;">; is_not =</text>
</g>
<!-- _34_init_declarator&#45;&gt;_44_initializer_dummy -->
<g id="edge86" class="edge"><title>_34_init_declarator&#45;&gt;_44_initializer_dummy</title>
<path style="fill:none;stroke:black;" d="M1436,-555C1462,-542 1498,-525 1529,-510"/>
<polygon style="fill:black;stroke:black;" points="1530.96,-512.916 1538,-505 1527.56,-506.797 1530.96,-512.916"/>
</g>
<!-- _37_preanalisys -->
<g id="node37" class="node"><title>_37_preanalisys</title>
<polygon style="fill:none;stroke:black;stroke-dasharray:1,5;" points="1259,-343 1259,-393 1385,-393 1385,-343 1259,-343"/>
<text text-anchor="middle" x="1322" y="-375.9" style="font-family:Times New Roman;font-size:14.00;">_37_preanalisys</text>
<polyline style="fill:none;stroke:black;stroke-dasharray:1,5;" points="1259,-368 1385,-368 "/>
<text text-anchor="middle" x="1322" y="-350.9" style="font-family:Times New Roman;font-size:14.00;">i is_not ) ;</text>
</g>
<!-- _36_declarator&#45;&gt;_37_preanalisys -->
<g id="edge72" class="edge"><title>_36_declarator&#45;&gt;_37_preanalisys</title>
<path style="fill:none;stroke:black;" d="M1391,-462C1380,-445 1361,-421 1347,-401"/>
<polygon style="fill:black;stroke:black;" points="1349.8,-398.9 1341,-393 1344.2,-403.1 1349.8,-398.9"/>
</g>
<!-- _38_direct_declarator -->
<g id="node38" class="node"><title>_38_direct_declarator</title>
<polygon style="fill:none;stroke:black;stroke-dasharray:1,5;" points="1403,-343 1403,-393 1568,-393 1568,-343 1403,-343"/>
<text text-anchor="middle" x="1485" y="-375.9" style="font-family:Times New Roman;font-size:14.00;">_38_direct_declarator</text>
<polyline style="fill:none;stroke:black;stroke-dasharray:1,5;" points="1403,-368 1568,-368 "/>
<text text-anchor="middle" x="1485" y="-350.9" style="font-family:Times New Roman;font-size:14.00;">; is_not ( : _</text>
</g>
<!-- _36_declarator&#45;&gt;_38_direct_declarator -->
<g id="edge74" class="edge"><title>_36_declarator&#45;&gt;_38_direct_declarator</title>
<path style="fill:none;stroke:black;" d="M1417,-462C1428,-445 1447,-421 1461,-401"/>
<polygon style="fill:black;stroke:black;" points="1463.8,-403.1 1467,-393 1458.2,-398.9 1463.8,-403.1"/>
</g>
<!-- _39_declarator_id -->
<g id="node39" class="node"><title>_39_declarator_id</title>
<ellipse style="fill:none;stroke:black;" cx="1485" cy="-269" rx="95.8938" ry="18"/>
<text text-anchor="middle" x="1485" y="-264.9" style="font-family:Times New Roman;font-size:14.00;">_39_declarator_id</text>
</g>
<!-- _38_direct_declarator&#45;&gt;_39_declarator_id -->
<g id="edge76" class="edge"><title>_38_direct_declarator&#45;&gt;_39_declarator_id</title>
<path style="fill:none;stroke:black;" d="M1485,-343C1485,-329 1485,-312 1485,-297"/>
<polygon style="fill:black;stroke:black;" points="1488.5,-297 1485,-287 1481.5,-297 1488.5,-297"/>
</g>
<!-- _40_COLONCOLON_opt -->
<g id="node40" class="node"><title>_40_COLONCOLON_opt</title>
<polygon style="fill:none;stroke:black;stroke-dasharray:1,5;" points="1348,-158 1348,-208 1528,-208 1528,-158 1348,-158"/>
<text text-anchor="middle" x="1438" y="-190.9" style="font-family:Times New Roman;font-size:14.00;">_40_COLONCOLON_opt</text>
<polyline style="fill:none;stroke:black;stroke-dasharray:1,5;" points="1348,-183 1528,-183 "/>
<text text-anchor="middle" x="1438" y="-165.9" style="font-family:Times New Roman;font-size:14.00;">i is_not COLONCOLON</text>
</g>
<!-- _39_declarator_id&#45;&gt;_40_COLONCOLON_opt -->
<g id="edge78" class="edge"><title>_39_declarator_id&#45;&gt;_40_COLONCOLON_opt</title>
<path style="fill:none;stroke:black;" d="M1475,-251C1469,-242 1463,-229 1457,-217"/>
<polygon style="fill:black;stroke:black;" points="1459.92,-215.042 1452,-208 1453.8,-218.441 1459.92,-215.042"/>
</g>
<!-- _41_id_expression -->
<g id="node41" class="node"><title>_41_id_expression</title>
<ellipse style="fill:none;stroke:black;" cx="1644" cy="-183" rx="98.1724" ry="18"/>
<text text-anchor="middle" x="1644" y="-178.9" style="font-family:Times New Roman;font-size:14.00;">_41_id_expression</text>
</g>
<!-- _39_declarator_id&#45;&gt;_41_id_expression -->
<g id="edge80" class="edge"><title>_39_declarator_id&#45;&gt;_41_id_expression</title>
<path style="fill:none;stroke:black;" d="M1517,-252C1542,-239 1577,-220 1603,-205"/>
<polygon style="fill:black;stroke:black;" points="1604.96,-207.916 1612,-200 1601.56,-201.797 1604.96,-207.916"/>
</g>
<!-- _42_unqualified_id -->
<g id="node42" class="node"><title>_42_unqualified_id</title>
<ellipse style="fill:none;stroke:black;" cx="1644" cy="-104" rx="100.063" ry="18"/>
<text text-anchor="middle" x="1644" y="-99.9" style="font-family:Times New Roman;font-size:14.00;">_42_unqualified_id</text>
</g>
<!-- _41_id_expression&#45;&gt;_42_unqualified_id -->
<g id="edge82" class="edge"><title>_41_id_expression&#45;&gt;_42_unqualified_id</title>
<path style="fill:none;stroke:black;" d="M1644,-165C1644,-155 1644,-143 1644,-132"/>
<polygon style="fill:black;stroke:black;" points="1647.5,-132 1644,-122 1640.5,-132 1647.5,-132"/>
</g>
<!-- _43_identifier -->
<g id="node43" class="node"><title>_43_identifier</title>
<polygon style="fill:none;stroke:green;" points="1584,-0 1584,-50 1704,-50 1704,-0 1584,-0"/>
<text text-anchor="middle" x="1644" y="-32.9" style="font-family:Times New Roman;font-size:14.00;">_43_identifier</text>
<polyline style="fill:none;stroke:green;" points="1584,-25 1704,-25 "/>
<text text-anchor="start" x="1592" y="-7.9" style="font-family:Times New Roman;font-size:14.00;">i is IDENTIFIER</text>
</g>
<!-- _42_unqualified_id&#45;&gt;_43_identifier -->
<g id="edge84" class="edge"><title>_42_unqualified_id&#45;&gt;_43_identifier</title>
<path style="fill:none;stroke:black;" d="M1644,-86C1644,-78 1644,-69 1644,-60"/>
<polygon style="fill:black;stroke:black;" points="1647.5,-60 1644,-50 1640.5,-60 1647.5,-60"/>
</g>
<!-- _46_is_eof -->
<g id="node46" class="node"><title>_46_is_eof</title>
<polygon style="fill:none;stroke:green;" points="1260,-870 1260,-920 1389,-920 1389,-870 1260,-870"/>
<text text-anchor="middle" x="1324" y="-902.9" style="font-family:Times New Roman;font-size:14.00;">_46_is_eof</text>
<polyline style="fill:none;stroke:green;" points="1260,-895 1389,-895 "/>
<text text-anchor="start" x="1267.5" y="-877.9" style="font-family:Times New Roman;font-size:14.00;">is 0 UNDEFINED</text>
</g>
<!-- _45_declaration&#45;&gt;_46_is_eof -->
<g id="edge90" class="edge"><title>_45_declaration&#45;&gt;_46_is_eof</title>
<path style="fill:none;stroke:black;" d="M1229,-957C1242,-948 1260,-936 1276,-926"/>
<polygon style="fill:black;stroke:black;" points="1278.62,-928.459 1285,-920 1274.74,-922.635 1278.62,-928.459"/>
</g>
</g>
</svg>
