<?xml version="1.0" encoding="UTF-8" standalone="no"?>
<!DOCTYPE svg PUBLIC "-//W3C//DTD SVG 1.0//EN"
 "http://www.w3.org/TR/2001/REC-SVG-20010904/DTD/svg10.dtd" [
 <!ATTLIST svg xmlns:xlink CDATA #FIXED "http://www.w3.org/1999/xlink">
]>
<!-- Generated by Graphviz version 2.20.2 (Tue Mar &#160;2 19:03:41 UTC 2010)
     For user: (hevia) hevia,,, -->
<!-- Title: R Pages: 1 -->
<svg width="144pt" height="30pt"
 viewBox="0.00 0.00 144.00 29.61" xmlns="http://www.w3.org/2000/svg" xmlns:xlink="http://www.w3.org/1999/xlink">
<g id="graph0" class="graph" transform="scale(0.672897 0.672897) rotate(0) translate(4 40)">
<title>R</title>
<polygon style="fill:white;stroke:white;" points="-4,4 -4,-40 210,-40 210,4 -4,4"/>
<!-- file -->
<g id="node1" class="node"><title>file</title>
<polygon style="fill:none;stroke:black;" points="58,-36 3.19744e-14,-36 0,-1.77636e-14 64,-3.55271e-15 64,-30 58,-36"/>
<polyline style="fill:none;stroke:black;" points="58,-36 58,-30 "/>
<polyline style="fill:none;stroke:black;" points="64,-30 58,-30 "/>
<text text-anchor="middle" x="32" y="-13.9" style="font-family:Times New Roman;font-size:14.00;">file.cpp</text>
</g>
<!-- lexer -->
<g id="node2" class="node"><title>lexer</title>
<polyline style="fill:none;stroke:black;" points="193,-36 113,-36 "/>
<path style="fill:none;stroke:black;" d="M113,-36C107,-36 101,-30 101,-24"/>
<polyline style="fill:none;stroke:black;" points="101,-24 101,-12 "/>
<path style="fill:none;stroke:black;" d="M101,-12C101,-6 107,-1.69437e-14 113,-1.61239e-14"/>
<polyline style="fill:none;stroke:black;" points="113,-1.61239e-14 193,-5.19243e-15 "/>
<path style="fill:none;stroke:black;" d="M193,-5.19243e-15C199,-4.37257e-15 205,-6 205,-12"/>
<polyline style="fill:none;stroke:black;" points="205,-12 205,-24 "/>
<path style="fill:none;stroke:black;" d="M205,-24C205,-30 199,-36 193,-36"/>
<text text-anchor="middle" x="153" y="-13.9" style="font-family:Times New Roman;font-size:14.00;">lexer module</text>
</g>
<!-- file&#45;&gt;lexer -->
<g id="edge2" class="edge"><title>file&#45;&gt;lexer</title>
<path style="fill:none;stroke:black;" d="M64,-18C72,-18 81,-18 90,-18"/>
<polygon style="fill:black;stroke:black;" points="90,-21.5001 100,-18 90,-14.5001 90,-21.5001"/>
</g>
</g>
</svg>
