<?xml version="1.0" encoding="UTF-8" standalone="no"?>
<!DOCTYPE svg PUBLIC "-//W3C//DTD SVG 1.0//EN"
 "http://www.w3.org/TR/2001/REC-SVG-20010904/DTD/svg10.dtd" [
 <!ATTLIST svg xmlns:xlink CDATA #FIXED "http://www.w3.org/1999/xlink">
]>
<!-- Generated by Graphviz version 2.20.2 (Tue Mar &#160;2 19:03:41 UTC 2010)
     For user: (hevia) hevia,,, -->
<!-- Title: G Pages: 1 -->
<svg width="1135pt" height="1320pt"
 viewBox="0.00 0.00 1135.00 1320.00" xmlns="http://www.w3.org/2000/svg" xmlns:xlink="http://www.w3.org/1999/xlink">
<g id="graph0" class="graph" transform="scale(1 1) rotate(0) translate(4 1316)">
<title>G</title>
<polygon style="fill:white;stroke:white;" points="-4,4 -4,-1316 1131,-1316 1131,4 -4,4"/>
<!-- c_class_member -->
<g id="node1" class="node"><title>c_class_member</title>
<polygon style="fill:none;stroke:black;" points="0,-68 0,-135 366,-135 366,-68 0,-68"/>
<text text-anchor="middle" x="183" y="-117.9" style="font-family:Times New Roman;font-size:14.00;">c_class_member</text>
<polyline style="fill:none;stroke:black;" points="0,-110 366,-110 "/>
<text text-anchor="start" x="8" y="-93.4" style="font-family:Times New Roman;font-size:14.00;">+ c_class_member()</text>
<text text-anchor="start" x="8" y="-76.4" style="font-family:Times New Roman;font-size:14.00;">+ c_class_member(c_token,t_vector_decl_specifier)</text>
</g>
<!-- c_context -->
<g id="node2" class="node"><title>c_context</title>
<polygon style="fill:none;stroke:black;" points="257,-734 257,-1311 692,-1311 692,-734 257,-734"/>
<text text-anchor="middle" x="474" y="-1293.9" style="font-family:Times New Roman;font-size:14.00;">c_context</text>
<polyline style="fill:none;stroke:black;" points="257,-1286 692,-1286 "/>
<text text-anchor="start" x="264.5" y="-1269.4" style="font-family:Times New Roman;font-size:14.00;">+ unsigned i_token</text>
<text text-anchor="start" x="264.5" y="-1252.4" style="font-family:Times New Roman;font-size:14.00;">+ t_class_specifier_status class_specifier_status</text>
<text text-anchor="start" x="264.5" y="-1235.4" style="font-family:Times New Roman;font-size:14.00;">+ int class_key</text>
<text text-anchor="start" x="264.5" y="-1218.4" style="font-family:Times New Roman;font-size:14.00;">+ int access_specifier</text>
<text text-anchor="start" x="264.5" y="-1201.4" style="font-family:Times New Roman;font-size:14.00;">+ std::string class_name_declaration</text>
<text text-anchor="start" x="264.5" y="-1184.4" style="font-family:Times New Roman;font-size:14.00;">+ int is_abstract</text>
<text text-anchor="start" x="264.5" y="-1167.4" style="font-family:Times New Roman;font-size:14.00;">+ int i_am_in_member</text>
<text text-anchor="start" x="264.5" y="-1150.4" style="font-family:Times New Roman;font-size:14.00;">+ std::string member_declaration</text>
<text text-anchor="start" x="264.5" y="-1133.4" style="font-family:Times New Roman;font-size:14.00;">+ int member_definition_outside</text>
<text text-anchor="start" x="264.5" y="-1116.4" style="font-family:Times New Roman;font-size:14.00;">+ std::string declaration</text>
<text text-anchor="start" x="264.5" y="-1099.4" style="font-family:Times New Roman;font-size:14.00;">+ int i_am_in_parameter_declaration</text>
<text text-anchor="start" x="264.5" y="-1082.4" style="font-family:Times New Roman;font-size:14.00;">+ int just_reloaded</text>
<text text-anchor="start" x="264.5" y="-1065.4" style="font-family:Times New Roman;font-size:14.00;">+ t_vector_decl_specifier param_vector_decl_specifier</text>
<text text-anchor="start" x="264.5" y="-1048.4" style="font-family:Times New Roman;font-size:14.00;">+ c_class_member class_member</text>
<text text-anchor="start" x="264.5" y="-1031.4" style="font-family:Times New Roman;font-size:14.00;">+ c_declarator declarator</text>
<text text-anchor="start" x="264.5" y="-1014.4" style="font-family:Times New Roman;font-size:14.00;">+ int is_typedef</text>
<text text-anchor="start" x="264.5" y="-997.4" style="font-family:Times New Roman;font-size:14.00;">+ int i_am_in_template_declaration</text>
<text text-anchor="start" x="264.5" y="-980.4" style="font-family:Times New Roman;font-size:14.00;">+ int declaring_template_type</text>
<text text-anchor="start" x="264.5" y="-963.4" style="font-family:Times New Roman;font-size:14.00;">+ c_template_parameter template_parameter</text>
<text text-anchor="start" x="264.5" y="-946.4" style="font-family:Times New Roman;font-size:14.00;">+ t_vector_template_parameter vector_template_parameter</text>
<text text-anchor="start" x="264.5" y="-929.4" style="font-family:Times New Roman;font-size:14.00;">+ t_map_template_parameter map_template_parameter</text>
<text text-anchor="start" x="264.5" y="-912.4" style="font-family:Times New Roman;font-size:14.00;">+ int is_template_instantiation</text>
<text text-anchor="start" x="264.5" y="-895.4" style="font-family:Times New Roman;font-size:14.00;">+ t_vector_template_argument vector_template_argument</text>
<text text-anchor="start" x="264.5" y="-878.4" style="font-family:Times New Roman;font-size:14.00;">+ t_map_template_argument map_template_argument</text>
<text text-anchor="start" x="264.5" y="-861.4" style="font-family:Times New Roman;font-size:14.00;">+ std::string namespace_name_declaration</text>
<text text-anchor="start" x="264.5" y="-844.4" style="font-family:Times New Roman;font-size:14.00;">+ int is_enum_declaration</text>
<text text-anchor="start" x="264.5" y="-827.4" style="font-family:Times New Roman;font-size:14.00;">+ int prefix_sharp</text>
<text text-anchor="start" x="264.5" y="-810.4" style="font-family:Times New Roman;font-size:14.00;">+ int class_pre_declaration</text>
<text text-anchor="start" x="264.5" y="-793.4" style="font-family:Times New Roman;font-size:14.00;">+ void print(void)</text>
<text text-anchor="start" x="264.5" y="-776.4" style="font-family:Times New Roman;font-size:14.00;">+ c_context()</text>
<text text-anchor="start" x="264.5" y="-759.4" style="font-family:Times New Roman;font-size:14.00;">+ void clear(void)</text>
<text text-anchor="start" x="264.5" y="-742.4" style="font-family:Times New Roman;font-size:14.00;">+ void restore_but_not_i_token(c_context &amp;)</text>
</g>
<!-- c_context&#45;&gt;c_class_member -->
<g id="edge4" class="edge"><title>c_context&#45;&gt;c_class_member</title>
<path style="fill:none;stroke:gray;" d="M262,-723C258,-715 255,-706 252,-698 176,-495 178,-228 181,-135"/>
<polygon style="fill:gray;stroke:gray;" points="262.034,-723.076 268.159,-726.883 267,-734 260.876,-730.193 262.034,-723.076"/>
</g>
<!-- c_declarator -->
<g id="node3" class="node"><title>c_declarator</title>
<polygon style="fill:none;stroke:black;" points="261,-240 261,-698 687,-698 687,-240 261,-240"/>
<text text-anchor="middle" x="474" y="-680.9" style="font-family:Times New Roman;font-size:14.00;">c_declarator</text>
<polyline style="fill:none;stroke:black;" points="261,-673 687,-673 "/>
<text text-anchor="start" x="269" y="-655.9" style="font-family:Times New Roman;font-size:14.00;"># t_map_parameter map_parameter</text>
<text text-anchor="start" x="269" y="-638.9" style="font-family:Times New Roman;font-size:14.00;"># t_vector_parameter vector_parameter</text>
<text text-anchor="start" x="269" y="-621.9" style="font-family:Times New Roman;font-size:14.00;">+ c_token token</text>
<text text-anchor="start" x="269" y="-604.9" style="font-family:Times New Roman;font-size:14.00;">+ c_token token_definition</text>
<text text-anchor="start" x="269" y="-587.9" style="font-family:Times New Roman;font-size:14.00;">+ t_vector_decl_specifier vector_decl_specifier</text>
<text text-anchor="start" x="269" y="-570.9" style="font-family:Times New Roman;font-size:14.00;">+ int is_function</text>
<text text-anchor="start" x="269" y="-553.9" style="font-family:Times New Roman;font-size:14.00;">+ int has_body</text>
<text text-anchor="start" x="269" y="-536.9" style="font-family:Times New Roman;font-size:14.00;">+ int access_specifier</text>
<text text-anchor="start" x="269" y="-519.9" style="font-family:Times New Roman;font-size:14.00;">+ int is_constructor</text>
<text text-anchor="start" x="269" y="-502.9" style="font-family:Times New Roman;font-size:14.00;">+ int is_destructor</text>
<text text-anchor="start" x="269" y="-485.9" style="font-family:Times New Roman;font-size:14.00;">+ int is_operator_overload</text>
<text text-anchor="start" x="269" y="-468.9" style="font-family:Times New Roman;font-size:14.00;">+ std::string operator_overload_sufix</text>
<text text-anchor="start" x="269" y="-451.9" style="font-family:Times New Roman;font-size:14.00;">+ void parameter_insert(c_parameter)</text>
<text text-anchor="start" x="269" y="-434.9" style="font-family:Times New Roman;font-size:14.00;">+ void print(const char *)</text>
<text text-anchor="start" x="269" y="-417.9" style="font-family:Times New Roman;font-size:14.00;">+ int is_typedef</text>
<text text-anchor="start" x="269" y="-400.9" style="font-family:Times New Roman;font-size:14.00;">+ int is_template</text>
<text text-anchor="start" x="269" y="-383.9" style="font-family:Times New Roman;font-size:14.00;">+ int is_template_instantiation</text>
<text text-anchor="start" x="269" y="-366.9" style="font-family:Times New Roman;font-size:14.00;">+ t_vector_template_argument vector_template_argument</text>
<text text-anchor="start" x="269" y="-349.9" style="font-family:Times New Roman;font-size:14.00;">+ t_map_template_argument map_template_argument</text>
<text text-anchor="start" x="269" y="-332.9" style="font-family:Times New Roman;font-size:14.00;">+ int is_extern</text>
<text text-anchor="start" x="269" y="-315.9" style="font-family:Times New Roman;font-size:14.00;">+ c_token extern_points_token</text>
<text text-anchor="start" x="269" y="-298.9" style="font-family:Times New Roman;font-size:14.00;">+ c_declarator()</text>
<text text-anchor="start" x="269" y="-281.9" style="font-family:Times New Roman;font-size:14.00;">+ c_declarator(c_token,t_vector_decl_specifier)</text>
<text text-anchor="start" x="269" y="-264.9" style="font-family:Times New Roman;font-size:14.00;">+ void clear(void)</text>
<text text-anchor="start" x="269" y="-247.9" style="font-family:Times New Roman;font-size:14.00;">+ std::string get_full_name(void)</text>
</g>
<!-- c_context&#45;&gt;c_declarator -->
<g id="edge6" class="edge"><title>c_context&#45;&gt;c_declarator</title>
<path style="fill:none;stroke:gray;" d="M474,-722C474,-714 474,-706 474,-698"/>
<polygon style="fill:gray;stroke:gray;" points="474,-722 478,-728 474,-734 470,-728 474,-722"/>
</g>
<!-- c_template_parameter -->
<g id="node4" class="node"><title>c_template_parameter</title>
<polygon style="fill:none;stroke:black;" points="705,-384 705,-553 1128,-553 1128,-384 705,-384"/>
<text text-anchor="middle" x="916" y="-535.9" style="font-family:Times New Roman;font-size:14.00;">c_template_parameter</text>
<polyline style="fill:none;stroke:black;" points="705,-528 1128,-528 "/>
<text text-anchor="start" x="712.5" y="-511.4" style="font-family:Times New Roman;font-size:14.00;">+ t_vector_decl_specifier vector_decl_specifier</text>
<text text-anchor="start" x="712.5" y="-494.4" style="font-family:Times New Roman;font-size:14.00;">+ c_token token</text>
<text text-anchor="start" x="712.5" y="-477.4" style="font-family:Times New Roman;font-size:14.00;">+ c_template_parameter()</text>
<text text-anchor="start" x="712.5" y="-460.4" style="font-family:Times New Roman;font-size:14.00;">+ c_template_parameter(c_token,t_vector_decl_specifier)</text>
<text text-anchor="start" x="712.5" y="-443.4" style="font-family:Times New Roman;font-size:14.00;">+ void clear(void)</text>
<text text-anchor="start" x="712.5" y="-426.4" style="font-family:Times New Roman;font-size:14.00;">+ void save(c_template_parameter &amp; template_parameter)</text>
<text text-anchor="start" x="712.5" y="-409.4" style="font-family:Times New Roman;font-size:14.00;">+ void print(const char *)</text>
<text text-anchor="start" x="712.5" y="-392.4" style="font-family:Times New Roman;font-size:14.00;">+ std::string get_string(void)</text>
</g>
<!-- c_context&#45;&gt;c_template_parameter -->
<g id="edge8" class="edge"><title>c_context&#45;&gt;c_template_parameter</title>
<path style="fill:none;stroke:gray;" d="M700,-740C754,-672 809,-604 849,-553"/>
<polygon style="fill:gray;stroke:gray;" points="699.496,-740.63 698.872,-747.814 692,-750 692.625,-742.816 699.496,-740.63"/>
</g>
<!-- c_declarator&#45;&gt;c_class_member -->
<g id="edge2" class="edge"><title>c_declarator&#45;&gt;c_class_member</title>
<path style="fill:none;stroke:black;" d="M285,-232C255,-194 228,-159 209,-135"/>
<polygon style="fill:none;stroke:black;" points="282.781,-234.779 292,-240 288.049,-230.169 282.781,-234.779"/>
</g>
<!-- c_token -->
<g id="node5" class="node"><title>c_token</title>
<polygon style="fill:none;stroke:black;" points="384,-0 384,-203 598,-203 598,-0 384,-0"/>
<text text-anchor="middle" x="491" y="-185.9" style="font-family:Times New Roman;font-size:14.00;">c_token</text>
<polyline style="fill:none;stroke:black;" points="384,-178 598,-178 "/>
<text text-anchor="start" x="392" y="-161.4" style="font-family:Times New Roman;font-size:14.00;">+ int id</text>
<text text-anchor="start" x="392" y="-144.4" style="font-family:Times New Roman;font-size:14.00;">+ std::string text</text>
<text text-anchor="start" x="392" y="-127.4" style="font-family:Times New Roman;font-size:14.00;">+ std::string file</text>
<text text-anchor="start" x="392" y="-110.4" style="font-family:Times New Roman;font-size:14.00;">+ int line</text>
<text text-anchor="start" x="392" y="-93.4" style="font-family:Times New Roman;font-size:14.00;">+ c_token()</text>
<text text-anchor="start" x="392" y="-76.4" style="font-family:Times New Roman;font-size:14.00;">+ c_token(int,const char *)</text>
<text text-anchor="start" x="392" y="-59.4" style="font-family:Times New Roman;font-size:14.00;">+ void clear(void)</text>
<text text-anchor="start" x="392" y="-42.4" style="font-family:Times New Roman;font-size:14.00;">+ void save(c_token token)</text>
<text text-anchor="start" x="392" y="-25.4" style="font-family:Times New Roman;font-size:14.00;">+ void save(int,const char *)</text>
<text text-anchor="start" x="392" y="-8.4" style="font-family:Times New Roman;font-size:14.00;">+ void print(const char *)</text>
</g>
<!-- c_declarator&#45;&gt;c_token -->
<g id="edge10" class="edge"><title>c_declarator&#45;&gt;c_token</title>
<path style="fill:none;stroke:gray;" d="M472,-228C473,-219 473,-211 474,-203"/>
<polygon style="fill:gray;stroke:gray;" points="471.997,-228.041 475.485,-234.353 471,-240 467.512,-233.689 471.997,-228.041"/>
</g>
<!-- c_declarator&#45;&gt;c_token -->
<g id="edge12" class="edge"><title>c_declarator&#45;&gt;c_token</title>
<path style="fill:none;stroke:gray;" d="M486,-228C486,-219 486,-211 487,-203"/>
<polygon style="fill:gray;stroke:gray;" points="485.997,-228.041 489.485,-234.353 485,-240 481.512,-233.689 485.997,-228.041"/>
</g>
<!-- c_declarator&#45;&gt;c_token -->
<g id="edge14" class="edge"><title>c_declarator&#45;&gt;c_token</title>
<path style="fill:none;stroke:gray;" d="M498,-228C499,-219 499,-211 499,-203"/>
<polygon style="fill:gray;stroke:gray;" points="498,-228 502,-234 498,-240 494,-234 498,-228"/>
</g>
<!-- c_template_parameter&#45;&gt;c_token -->
<g id="edge16" class="edge"><title>c_template_parameter&#45;&gt;c_token</title>
<path style="fill:none;stroke:gray;" d="M835,-375C795,-332 745,-281 696,-240 666,-215 631,-190 598,-168"/>
<polygon style="fill:gray;stroke:gray;" points="835.028,-375.031 842.003,-376.858 843,-384 836.024,-382.173 835.028,-375.031"/>
</g>
</g>
</svg>
