<?xml version="1.0" encoding="UTF-8" standalone="no"?>
<!DOCTYPE svg PUBLIC "-//W3C//DTD SVG 1.0//EN"
 "http://www.w3.org/TR/2001/REC-SVG-20010904/DTD/svg10.dtd" [
 <!ATTLIST svg xmlns:xlink CDATA #FIXED "http://www.w3.org/1999/xlink">
]>
<!-- Generated by Graphviz version 2.20.2 (Tue Mar &#160;2 19:03:41 UTC 2010)
     For user: (hevia) hevia,,, -->
<!-- Title: R Pages: 1 -->
<svg width="288pt" height="30pt"
 viewBox="0.00 0.00 288.00 30.46" xmlns="http://www.w3.org/2000/svg" xmlns:xlink="http://www.w3.org/1999/xlink">
<g id="graph0" class="graph" transform="scale(0.692308 0.692308) rotate(0) translate(4 40)">
<title>R</title>
<polygon style="fill:white;stroke:white;" points="-4,4 -4,-40 412,-40 412,4 -4,4"/>
<!-- file -->
<g id="node1" class="node"><title>file</title>
<polygon style="fill:none;stroke:black;" points="164,-36 7.10543e-14,-36 0,-1.77636e-14 170,-3.55271e-15 170,-30 164,-36"/>
<polyline style="fill:none;stroke:black;" points="164,-36 164,-30 "/>
<polyline style="fill:none;stroke:black;" points="170,-30 164,-30 "/>
<text text-anchor="middle" x="85" y="-13.9" style="font-family:Times New Roman;font-size:14.00;">.abidos_cpp/files_input</text>
</g>
<!-- loader -->
<g id="node2" class="node"><title>loader</title>
<polyline style="fill:none;stroke:black;" points="253,-36 219,-36 "/>
<path style="fill:none;stroke:black;" d="M219,-36C213,-36 207,-30 207,-24"/>
<polyline style="fill:none;stroke:black;" points="207,-24 207,-12 "/>
<path style="fill:none;stroke:black;" d="M207,-12C207,-6 213,-1.62935e-14 219,-1.48234e-14"/>
<polyline style="fill:none;stroke:black;" points="219,-1.48234e-14 253,-6.49289e-15 "/>
<path style="fill:none;stroke:black;" d="M253,-6.49289e-15C259,-5.0228e-15 265,-6 265,-12"/>
<polyline style="fill:none;stroke:black;" points="265,-12 265,-24 "/>
<path style="fill:none;stroke:black;" d="M265,-24C265,-30 259,-36 253,-36"/>
<text text-anchor="middle" x="236" y="-13.9" style="font-family:Times New Roman;font-size:14.00;">loader</text>
</g>
<!-- file&#45;&gt;loader -->
<g id="edge2" class="edge"><title>file&#45;&gt;loader</title>
<path style="fill:none;stroke:black;" d="M170,-18C179,-18 188,-18 196,-18"/>
<polygon style="fill:black;stroke:black;" points="196,-21.5001 206,-18 196,-14.5001 196,-21.5001"/>
</g>
<!-- lexer -->
<g id="node3" class="node"><title>lexer</title>
<polyline style="fill:none;stroke:black;" points="395,-36 315,-36 "/>
<path style="fill:none;stroke:black;" d="M315,-36C309,-36 303,-30 303,-24"/>
<polyline style="fill:none;stroke:black;" points="303,-24 303,-12 "/>
<path style="fill:none;stroke:black;" d="M303,-12C303,-6 309,-1.69437e-14 315,-1.61239e-14"/>
<polyline style="fill:none;stroke:black;" points="315,-1.61239e-14 395,-5.19243e-15 "/>
<path style="fill:none;stroke:black;" d="M395,-5.19243e-15C401,-4.37257e-15 407,-6 407,-12"/>
<polyline style="fill:none;stroke:black;" points="407,-12 407,-24 "/>
<path style="fill:none;stroke:black;" d="M407,-24C407,-30 401,-36 395,-36"/>
<text text-anchor="middle" x="355" y="-13.9" style="font-family:Times New Roman;font-size:14.00;">lexer module</text>
</g>
<!-- loader&#45;&gt;lexer -->
<g id="edge4" class="edge"><title>loader&#45;&gt;lexer</title>
<path style="fill:none;stroke:black;" d="M266,-18C274,-18 283,-18 292,-18"/>
<polygon style="fill:black;stroke:black;" points="292,-21.5001 302,-18 292,-14.5001 292,-21.5001"/>
</g>
</g>
</svg>
