<?xml version="1.0" encoding="UTF-8" standalone="no"?>
<!DOCTYPE svg PUBLIC "-//W3C//DTD SVG 1.0//EN"
 "http://www.w3.org/TR/2001/REC-SVG-20010904/DTD/svg10.dtd" [
 <!ATTLIST svg xmlns:xlink CDATA #FIXED "http://www.w3.org/1999/xlink">
]>
<!-- Generated by Graphviz version 2.20.2 (Tue Mar &#160;2 19:03:41 UTC 2010)
     For user: (hevia) hevia,,, -->
<!-- Title: G Pages: 1 -->
<svg width="328pt" height="504pt"
 viewBox="0.00 0.00 327.52 504.00" xmlns="http://www.w3.org/2000/svg" xmlns:xlink="http://www.w3.org/1999/xlink">
<g id="graph0" class="graph" transform="scale(0.424242 0.424242) rotate(0) translate(4 1184)">
<title>G</title>
<polygon style="fill:white;stroke:white;" points="-4,4 -4,-1184 768,-1184 768,4 -4,4"/>
<!-- ROOT -->
<g id="node1" class="node"><title>ROOT</title>
<ellipse style="fill:none;stroke:black;" cx="568" cy="-1162" rx="39.1069" ry="18"/>
<text text-anchor="middle" x="568" y="-1157.9" style="font-family:Times New Roman;font-size:14.00;">ROOT</text>
</g>
<!-- _2_declaration_seq_opt -->
<g id="node2" class="node"><title>_2_declaration_seq_opt</title>
<ellipse style="fill:none;stroke:black;" cx="568" cy="-1090" rx="122.994" ry="18"/>
<text text-anchor="middle" x="568" y="-1085.9" style="font-family:Times New Roman;font-size:14.00;">_2_declaration_seq_opt</text>
</g>
<!-- ROOT&#45;&gt;_2_declaration_seq_opt -->
<g id="edge2" class="edge"><title>ROOT&#45;&gt;_2_declaration_seq_opt</title>
<path style="fill:none;stroke:black;" d="M568,-1144C568,-1136 568,-1127 568,-1118"/>
<polygon style="fill:black;stroke:black;" points="571.5,-1118 568,-1108 564.5,-1118 571.5,-1118"/>
</g>
<!-- _3_declaration_seq -->
<g id="node3" class="node"><title>_3_declaration_seq</title>
<ellipse style="fill:none;stroke:black;" cx="568" cy="-1018" rx="102.148" ry="18"/>
<text text-anchor="middle" x="568" y="-1013.9" style="font-family:Times New Roman;font-size:14.00;">_3_declaration_seq</text>
</g>
<!-- _2_declaration_seq_opt&#45;&gt;_3_declaration_seq -->
<g id="edge4" class="edge"><title>_2_declaration_seq_opt&#45;&gt;_3_declaration_seq</title>
<path style="fill:none;stroke:black;" d="M568,-1072C568,-1064 568,-1055 568,-1046"/>
<polygon style="fill:black;stroke:black;" points="571.5,-1046 568,-1036 564.5,-1046 571.5,-1046"/>
</g>
<!-- _4_declaration -->
<g id="node4" class="node"><title>_4_declaration</title>
<ellipse style="fill:none;stroke:black;" cx="472" cy="-946" rx="80.8024" ry="18"/>
<text text-anchor="middle" x="472" y="-941.9" style="font-family:Times New Roman;font-size:14.00;">_4_declaration</text>
</g>
<!-- _3_declaration_seq&#45;&gt;_4_declaration -->
<g id="edge6" class="edge"><title>_3_declaration_seq&#45;&gt;_4_declaration</title>
<path style="fill:none;stroke:black;" d="M544,-1000C532,-991 516,-980 503,-969"/>
<polygon style="fill:black;stroke:black;" points="505.1,-966.2 495,-963 500.9,-971.8 505.1,-966.2"/>
</g>
<!-- _45_declaration -->
<g id="node23" class="node"><title>_45_declaration</title>
<ellipse style="fill:none;stroke:black;" cx="664" cy="-946" rx="87.0549" ry="18"/>
<text text-anchor="middle" x="664" y="-941.9" style="font-family:Times New Roman;font-size:14.00;">_45_declaration</text>
</g>
<!-- _3_declaration_seq&#45;&gt;_45_declaration -->
<g id="edge44" class="edge"><title>_3_declaration_seq&#45;&gt;_45_declaration</title>
<path style="fill:none;stroke:black;" d="M592,-1000C604,-991 620,-980 633,-969"/>
<polygon style="fill:black;stroke:black;" points="635.1,-971.8 641,-963 630.9,-966.2 635.1,-971.8"/>
</g>
<!-- _14_block_declaration -->
<g id="node5" class="node"><title>_14_block_declaration</title>
<ellipse style="fill:none;stroke:black;" cx="469" cy="-867" rx="116.239" ry="18"/>
<text text-anchor="middle" x="469" y="-862.9" style="font-family:Times New Roman;font-size:14.00;">_14_block_declaration</text>
</g>
<!-- _4_declaration&#45;&gt;_14_block_declaration -->
<g id="edge8" class="edge"><title>_4_declaration&#45;&gt;_14_block_declaration</title>
<path style="fill:none;stroke:black;" d="M471,-928C470,-918 470,-906 470,-895"/>
<polygon style="fill:black;stroke:black;" points="473.5,-895 470,-885 466.5,-895 473.5,-895"/>
</g>
<!-- _15_simple_declaration -->
<g id="node6" class="node"><title>_15_simple_declaration</title>
<polygon style="fill:none;stroke:green;" points="381,-756 381,-806 558,-806 558,-756 381,-756"/>
<text text-anchor="middle" x="469" y="-788.9" style="font-family:Times New Roman;font-size:14.00;">_15_simple_declaration</text>
<polyline style="fill:none;stroke:green;" points="381,-781 558,-781 "/>
<text text-anchor="start" x="388.5" y="-763.9" style="font-family:Times New Roman;font-size:14.00;">; is ; </text>
</g>
<!-- _14_block_declaration&#45;&gt;_15_simple_declaration -->
<g id="edge10" class="edge"><title>_14_block_declaration&#45;&gt;_15_simple_declaration</title>
<path style="fill:none;stroke:black;" d="M469,-849C469,-840 469,-828 469,-816"/>
<polygon style="fill:black;stroke:black;" points="472.5,-816 469,-806 465.5,-816 472.5,-816"/>
</g>
<!-- _16_decl_specifier_seq_opt -->
<g id="node7" class="node"><title>_16_decl_specifier_seq_opt</title>
<ellipse style="fill:none;stroke:black;" cx="319" cy="-702" rx="139.171" ry="18"/>
<text text-anchor="middle" x="319" y="-697.9" style="font-family:Times New Roman;font-size:14.00;">_16_decl_specifier_seq_opt</text>
</g>
<!-- _15_simple_declaration&#45;&gt;_16_decl_specifier_seq_opt -->
<g id="edge12" class="edge"><title>_15_simple_declaration&#45;&gt;_16_decl_specifier_seq_opt</title>
<path style="fill:none;stroke:black;" d="M421,-756C401,-746 379,-734 361,-725"/>
<polygon style="fill:black;stroke:black;" points="362.441,-721.797 352,-720 359.042,-727.916 362.441,-721.797"/>
</g>
<!-- _32_init_declarator_list_opt -->
<g id="node14" class="node"><title>_32_init_declarator_list_opt</title>
<ellipse style="fill:none;stroke:black;" cx="620" cy="-702" rx="143.841" ry="18"/>
<text text-anchor="middle" x="620" y="-697.9" style="font-family:Times New Roman;font-size:14.00;">_32_init_declarator_list_opt</text>
</g>
<!-- _15_simple_declaration&#45;&gt;_32_init_declarator_list_opt -->
<g id="edge26" class="edge"><title>_15_simple_declaration&#45;&gt;_32_init_declarator_list_opt</title>
<path style="fill:none;stroke:black;" d="M517,-756C537,-746 559,-734 577,-725"/>
<polygon style="fill:black;stroke:black;" points="578.958,-727.916 586,-720 575.559,-721.797 578.958,-727.916"/>
</g>
<!-- _17_decl_specifier_seq -->
<g id="node8" class="node"><title>_17_decl_specifier_seq</title>
<ellipse style="fill:none;stroke:black;" cx="319" cy="-623" rx="118.825" ry="18"/>
<text text-anchor="middle" x="319" y="-618.9" style="font-family:Times New Roman;font-size:14.00;">_17_decl_specifier_seq</text>
</g>
<!-- _16_decl_specifier_seq_opt&#45;&gt;_17_decl_specifier_seq -->
<g id="edge14" class="edge"><title>_16_decl_specifier_seq_opt&#45;&gt;_17_decl_specifier_seq</title>
<path style="fill:none;stroke:black;" d="M319,-684C319,-674 319,-662 319,-651"/>
<polygon style="fill:black;stroke:black;" points="322.5,-651 319,-641 315.5,-651 322.5,-651"/>
</g>
<!-- _18_decl_specifier -->
<g id="node9" class="node"><title>_18_decl_specifier</title>
<ellipse style="fill:none;stroke:black;" cx="149" cy="-544" rx="96.7846" ry="18"/>
<text text-anchor="middle" x="149" y="-539.9" style="font-family:Times New Roman;font-size:14.00;">_18_decl_specifier</text>
</g>
<!-- _17_decl_specifier_seq&#45;&gt;_18_decl_specifier -->
<g id="edge16" class="edge"><title>_17_decl_specifier_seq&#45;&gt;_18_decl_specifier</title>
<path style="fill:none;stroke:black;" d="M282,-606C256,-594 221,-578 194,-565"/>
<polygon style="fill:black;stroke:black;" points="195.56,-561.863 185,-561 192.717,-568.26 195.56,-561.863"/>
</g>
<!-- _30_decl_specifier -->
<g id="node12" class="node"><title>_30_decl_specifier</title>
<ellipse style="fill:none;stroke:black;" cx="361" cy="-544" rx="96.7846" ry="18"/>
<text text-anchor="middle" x="361" y="-539.9" style="font-family:Times New Roman;font-size:14.00;">_30_decl_specifier</text>
</g>
<!-- _17_decl_specifier_seq&#45;&gt;_30_decl_specifier -->
<g id="edge22" class="edge"><title>_17_decl_specifier_seq&#45;&gt;_30_decl_specifier</title>
<path style="fill:none;stroke:black;" d="M329,-605C334,-595 341,-582 347,-571"/>
<polygon style="fill:black;stroke:black;" points="350.137,-572.56 351,-562 343.74,-569.717 350.137,-572.56"/>
</g>
<!-- _21_type_specifier -->
<g id="node10" class="node"><title>_21_type_specifier</title>
<ellipse style="fill:none;stroke:black;" cx="149" cy="-452" rx="100.063" ry="18"/>
<text text-anchor="middle" x="149" y="-447.9" style="font-family:Times New Roman;font-size:14.00;">_21_type_specifier</text>
</g>
<!-- _18_decl_specifier&#45;&gt;_21_type_specifier -->
<g id="edge18" class="edge"><title>_18_decl_specifier&#45;&gt;_21_type_specifier</title>
<path style="fill:none;stroke:black;" d="M149,-526C149,-513 149,-495 149,-480"/>
<polygon style="fill:black;stroke:black;" points="152.5,-480 149,-470 145.5,-480 152.5,-480"/>
</g>
<!-- _22_simple_type_specifier -->
<g id="node11" class="node"><title>_22_simple_type_specifier</title>
<polygon style="fill:none;stroke:green;" points="0,-302 0,-377 299,-377 299,-302 0,-302"/>
<text text-anchor="middle" x="149" y="-359.9" style="font-family:Times New Roman;font-size:14.00;">_22_simple_type_specifier</text>
<polyline style="fill:none;stroke:green;" points="0,-352 299,-352 "/>
<text text-anchor="start" x="7.5" y="-334.9" style="font-family:Times New Roman;font-size:14.00;">int is INT</text>
<polyline style="fill:none;stroke:green;" points="0,-327 299,-327 "/>
<text text-anchor="middle" x="149" y="-309.9" style="font-family:Times New Roman;font-size:14.00;">int is_not CHAR WCHAR_T BOOL SHORT</text>
</g>
<!-- _21_type_specifier&#45;&gt;_22_simple_type_specifier -->
<g id="edge20" class="edge"><title>_21_type_specifier&#45;&gt;_22_simple_type_specifier</title>
<path style="fill:none;stroke:black;" d="M149,-434C149,-422 149,-404 149,-387"/>
<polygon style="fill:black;stroke:black;" points="152.5,-387 149,-377 145.5,-387 152.5,-387"/>
</g>
<!-- _31_preanalisys -->
<g id="node13" class="node"><title>_31_preanalisys</title>
<polygon style="fill:none;stroke:green;" points="267,-414 267,-489 456,-489 456,-414 267,-414"/>
<text text-anchor="middle" x="361" y="-471.9" style="font-family:Times New Roman;font-size:14.00;">_31_preanalisys</text>
<polyline style="fill:none;stroke:green;" points="267,-464 456,-464 "/>
<text text-anchor="start" x="274.5" y="-446.9" style="font-family:Times New Roman;font-size:14.00;">i is IDENTIFIER</text>
<polyline style="fill:none;stroke:green;" points="267,-439 456,-439 "/>
<text text-anchor="middle" x="361" y="-421.9" style="font-family:Times New Roman;font-size:14.00;">i is_not ; ) COLONCOLON</text>
</g>
<!-- _30_decl_specifier&#45;&gt;_31_preanalisys -->
<g id="edge24" class="edge"><title>_30_decl_specifier&#45;&gt;_31_preanalisys</title>
<path style="fill:none;stroke:black;" d="M361,-526C361,-518 361,-509 361,-499"/>
<polygon style="fill:black;stroke:black;" points="364.5,-499 361,-489 357.5,-499 364.5,-499"/>
</g>
<!-- _33_init_declarator_list -->
<g id="node15" class="node"><title>_33_init_declarator_list</title>
<polygon style="fill:none;stroke:green;" points="532,-598 532,-648 709,-648 709,-598 532,-598"/>
<text text-anchor="middle" x="620" y="-630.9" style="font-family:Times New Roman;font-size:14.00;">_33_init_declarator_list</text>
<polyline style="fill:none;stroke:green;" points="532,-623 709,-623 "/>
<text text-anchor="start" x="539.5" y="-605.9" style="font-family:Times New Roman;font-size:14.00;">; is ; </text>
</g>
<!-- _32_init_declarator_list_opt&#45;&gt;_33_init_declarator_list -->
<g id="edge28" class="edge"><title>_32_init_declarator_list_opt&#45;&gt;_33_init_declarator_list</title>
<path style="fill:none;stroke:black;" d="M620,-684C620,-676 620,-667 620,-658"/>
<polygon style="fill:black;stroke:black;" points="623.5,-658 620,-648 616.5,-658 623.5,-658"/>
</g>
<!-- _34_init_declarator -->
<g id="node16" class="node"><title>_34_init_declarator</title>
<ellipse style="fill:none;stroke:black;" cx="620" cy="-544" rx="103.037" ry="18"/>
<text text-anchor="middle" x="620" y="-539.9" style="font-family:Times New Roman;font-size:14.00;">_34_init_declarator</text>
</g>
<!-- _33_init_declarator_list&#45;&gt;_34_init_declarator -->
<g id="edge30" class="edge"><title>_33_init_declarator_list&#45;&gt;_34_init_declarator</title>
<path style="fill:none;stroke:black;" d="M620,-598C620,-590 620,-581 620,-572"/>
<polygon style="fill:black;stroke:black;" points="623.5,-572 620,-562 616.5,-572 623.5,-572"/>
</g>
<!-- _36_declarator -->
<g id="node17" class="node"><title>_36_declarator</title>
<ellipse style="fill:none;stroke:black;" cx="620" cy="-452" rx="82.1898" ry="18"/>
<text text-anchor="middle" x="620" y="-447.9" style="font-family:Times New Roman;font-size:14.00;">_36_declarator</text>
</g>
<!-- _34_init_declarator&#45;&gt;_36_declarator -->
<g id="edge32" class="edge"><title>_34_init_declarator&#45;&gt;_36_declarator</title>
<path style="fill:none;stroke:black;" d="M620,-526C620,-513 620,-495 620,-480"/>
<polygon style="fill:black;stroke:black;" points="623.5,-480 620,-470 616.5,-480 623.5,-480"/>
</g>
<!-- _38_direct_declarator -->
<g id="node18" class="node"><title>_38_direct_declarator</title>
<polygon style="fill:none;stroke:black;stroke-dasharray:1,5;" points="538,-315 538,-365 703,-365 703,-315 538,-315"/>
<text text-anchor="middle" x="620" y="-347.9" style="font-family:Times New Roman;font-size:14.00;">_38_direct_declarator</text>
<polyline style="fill:none;stroke:black;stroke-dasharray:1,5;" points="538,-340 703,-340 "/>
<text text-anchor="middle" x="620" y="-322.9" style="font-family:Times New Roman;font-size:14.00;">; is_not ( : _</text>
</g>
<!-- _36_declarator&#45;&gt;_38_direct_declarator -->
<g id="edge34" class="edge"><title>_36_declarator&#45;&gt;_38_direct_declarator</title>
<path style="fill:none;stroke:black;" d="M620,-434C620,-418 620,-395 620,-375"/>
<polygon style="fill:black;stroke:black;" points="623.5,-375 620,-365 616.5,-375 623.5,-375"/>
</g>
<!-- _39_declarator_id -->
<g id="node19" class="node"><title>_39_declarator_id</title>
<ellipse style="fill:none;stroke:black;" cx="620" cy="-248" rx="95.8938" ry="18"/>
<text text-anchor="middle" x="620" y="-243.9" style="font-family:Times New Roman;font-size:14.00;">_39_declarator_id</text>
</g>
<!-- _38_direct_declarator&#45;&gt;_39_declarator_id -->
<g id="edge36" class="edge"><title>_38_direct_declarator&#45;&gt;_39_declarator_id</title>
<path style="fill:none;stroke:black;" d="M620,-315C620,-303 620,-289 620,-276"/>
<polygon style="fill:black;stroke:black;" points="623.5,-276 620,-266 616.5,-276 623.5,-276"/>
</g>
<!-- _41_id_expression -->
<g id="node20" class="node"><title>_41_id_expression</title>
<ellipse style="fill:none;stroke:black;" cx="620" cy="-176" rx="98.1724" ry="18"/>
<text text-anchor="middle" x="620" y="-171.9" style="font-family:Times New Roman;font-size:14.00;">_41_id_expression</text>
</g>
<!-- _39_declarator_id&#45;&gt;_41_id_expression -->
<g id="edge38" class="edge"><title>_39_declarator_id&#45;&gt;_41_id_expression</title>
<path style="fill:none;stroke:black;" d="M620,-230C620,-222 620,-213 620,-204"/>
<polygon style="fill:black;stroke:black;" points="623.5,-204 620,-194 616.5,-204 623.5,-204"/>
</g>
<!-- _42_unqualified_id -->
<g id="node21" class="node"><title>_42_unqualified_id</title>
<ellipse style="fill:none;stroke:black;" cx="620" cy="-104" rx="100.063" ry="18"/>
<text text-anchor="middle" x="620" y="-99.9" style="font-family:Times New Roman;font-size:14.00;">_42_unqualified_id</text>
</g>
<!-- _41_id_expression&#45;&gt;_42_unqualified_id -->
<g id="edge40" class="edge"><title>_41_id_expression&#45;&gt;_42_unqualified_id</title>
<path style="fill:none;stroke:black;" d="M620,-158C620,-150 620,-141 620,-132"/>
<polygon style="fill:black;stroke:black;" points="623.5,-132 620,-122 616.5,-132 623.5,-132"/>
</g>
<!-- _43_identifier -->
<g id="node22" class="node"><title>_43_identifier</title>
<polygon style="fill:none;stroke:green;" points="560,-0 560,-50 680,-50 680,-0 560,-0"/>
<text text-anchor="middle" x="620" y="-32.9" style="font-family:Times New Roman;font-size:14.00;">_43_identifier</text>
<polyline style="fill:none;stroke:green;" points="560,-25 680,-25 "/>
<text text-anchor="start" x="568" y="-7.9" style="font-family:Times New Roman;font-size:14.00;">i is IDENTIFIER</text>
</g>
<!-- _42_unqualified_id&#45;&gt;_43_identifier -->
<g id="edge42" class="edge"><title>_42_unqualified_id&#45;&gt;_43_identifier</title>
<path style="fill:none;stroke:black;" d="M620,-86C620,-78 620,-69 620,-60"/>
<polygon style="fill:black;stroke:black;" points="623.5,-60 620,-50 616.5,-60 623.5,-60"/>
</g>
<!-- _46_is_eof -->
<g id="node24" class="node"><title>_46_is_eof</title>
<polygon style="fill:none;stroke:green;" points="603,-842 603,-892 732,-892 732,-842 603,-842"/>
<text text-anchor="middle" x="667" y="-874.9" style="font-family:Times New Roman;font-size:14.00;">_46_is_eof</text>
<polyline style="fill:none;stroke:green;" points="603,-867 732,-867 "/>
<text text-anchor="start" x="610.5" y="-849.9" style="font-family:Times New Roman;font-size:14.00;">is 0 UNDEFINED</text>
</g>
<!-- _45_declaration&#45;&gt;_46_is_eof -->
<g id="edge46" class="edge"><title>_45_declaration&#45;&gt;_46_is_eof</title>
<path style="fill:none;stroke:black;" d="M665,-928C665,-920 666,-911 666,-902"/>
<polygon style="fill:black;stroke:black;" points="669.5,-902 666,-892 662.5,-902 669.5,-902"/>
</g>
</g>
</svg>
